<svg width="124" height="56" viewBox="0 0 124 56" fill="none" xmlns="http://www.w3.org/2000/svg">
<g style="mix-blend-mode:multiply" opacity="0.55">
<path fill-rule="evenodd" clip-rule="evenodd" d="M50.0879 36.0126C44.1438 35.6239 38.296 35.3645 32.4739 35.439C30.3544 35.4662 28.2181 35.5661 25.9815 35.6751C25.861 35.681 25.7402 35.6869 25.619 35.6928C23.522 35.7952 21.332 35.9022 19.1308 35.945C18.8333 35.9508 18.5408 35.9562 18.2526 35.9614C16.4106 35.9951 14.7425 36.0257 13.0779 36.1475C13.0802 36.1473 13.0536 36.1492 12.9771 36.1593C12.9005 36.1694 12.8232 36.1809 12.6914 36.2005C12.6765 36.2027 12.661 36.205 12.6447 36.2074C12.6363 36.2087 12.6276 36.21 12.6187 36.2113C12.351 36.2511 11.8444 36.3264 11.2894 36.3557L8.0896 36.5241C7.05199 36.5787 6.3098 35.4965 6.64823 34.5144C7.03282 33.3977 7.39144 32.0579 7.33871 31.056C7.16085 27.6768 8.88178 26.1382 9.6577 25.62C9.89137 25.464 10.1689 25.3994 10.4494 25.3846L10.7076 25.3711C10.7076 25.3709 10.7689 25.3654 11.0293 25.3267C11.0479 25.3239 11.0685 25.3208 11.0911 25.3175C11.3326 25.2812 11.7936 25.212 12.2751 25.1768C14.2653 25.0312 16.2654 24.9952 18.0864 24.9625C18.3677 24.9574 18.6446 24.9524 18.9166 24.9471C20.9513 24.9075 22.9926 24.8079 25.1288 24.7036C25.2343 24.6985 25.3401 24.6933 25.4461 24.6881C27.6677 24.5799 29.9896 24.47 32.333 24.4399C38.5611 24.3602 44.7271 24.6386 50.8056 25.036C60.1888 25.6495 69.5761 25.7496 79.1533 25.8516C80.179 25.8625 81.2069 25.8735 82.2373 25.8851C83.07 25.8945 83.9145 25.9015 84.7677 25.9086C87.644 25.9327 90.6193 25.9575 93.5764 26.0754C95.7795 26.1632 97.9631 26.2395 100.162 26.3163C101.553 26.3649 102.95 26.4138 104.362 26.4658C104.684 26.4777 105.001 26.4897 105.315 26.5016C107.163 26.5716 108.893 26.6372 110.618 26.6372C110.731 26.6372 110.887 26.6272 111.326 26.5899L111.378 26.5855C111.743 26.5543 112.343 26.5031 112.98 26.5031H116.184C117.223 26.5031 117.908 27.6228 117.518 28.5857C117.075 29.6807 116.647 30.9998 116.647 32.0031C116.647 35.3869 114.847 36.833 114.045 37.3097C113.804 37.4531 113.523 37.5031 113.242 37.5031H112.98C112.855 37.5031 112.688 37.5137 112.258 37.5504L112.197 37.5556C111.838 37.5862 111.243 37.6372 110.618 37.6372C108.667 37.6372 106.702 37.5624 104.865 37.4925C104.558 37.4809 104.255 37.4694 103.957 37.4584C102.592 37.408 101.212 37.3598 99.8265 37.3113C97.6007 37.2335 95.3588 37.1551 93.1384 37.0666C90.3712 36.9563 87.6323 36.9333 84.7907 36.9095C83.9094 36.9021 83.0183 36.8946 82.1133 36.8844C81.0822 36.8728 80.0491 36.8618 79.014 36.8508C69.4821 36.7497 59.7895 36.6469 50.0879 36.0126Z" fill="#8B5CF6"/>
</g>
<path d="M99.1555 38.4767C97.4752 38.4767 95.9652 38.1361 94.6255 37.4549C93.2858 36.7737 92.2299 35.786 91.4579 34.4917C90.6858 33.1974 90.2998 31.642 90.2998 29.8254V29.2805C90.2998 27.4639 90.6858 25.9085 91.4579 24.6142C92.2299 23.3199 93.2858 22.3322 94.6255 21.651C95.9652 20.9698 97.4752 20.6292 99.1555 20.6292C100.836 20.6292 102.346 20.9698 103.686 21.651C105.025 22.3322 106.081 23.3199 106.853 24.6142C107.625 25.9085 108.011 27.4639 108.011 29.2805V29.8254C108.011 31.642 107.625 33.1974 106.853 34.4917C106.081 35.786 105.025 36.7737 103.686 37.4549C102.346 38.1361 100.836 38.4767 99.1555 38.4767ZM99.1555 34.662C100.472 34.662 101.562 34.2419 102.425 33.4018C103.288 32.5389 103.72 31.3127 103.72 29.7232V29.3826C103.72 27.7932 103.288 26.5783 102.425 25.7382C101.585 24.8753 100.495 24.4439 99.1555 24.4439C97.8385 24.4439 96.7486 24.8753 95.8857 25.7382C95.0228 26.5783 94.5914 27.7932 94.5914 29.3826V29.7232C94.5914 31.3127 95.0228 32.5389 95.8857 33.4018C96.7486 34.2419 97.8385 34.662 99.1555 34.662Z" fill="#18181B"/>
<path d="M81.975 38.4767C79.7724 38.4767 77.9672 37.9999 76.5594 37.0462C75.1516 36.0925 74.3001 34.7301 74.0049 32.959L77.9559 31.9372C78.1148 32.7319 78.376 33.3563 78.7393 33.8105C79.1253 34.2646 79.5908 34.5939 80.1357 34.7982C80.7034 34.9799 81.3165 35.0707 81.975 35.0707C82.9741 35.0707 83.7121 34.9004 84.1889 34.5598C84.6658 34.1965 84.9042 33.7537 84.9042 33.2315C84.9042 32.7092 84.6771 32.3118 84.223 32.0393C83.7688 31.7442 83.0422 31.5057 82.0431 31.3241L81.0894 31.1538C79.9087 30.9267 78.8301 30.6202 77.8537 30.2342C76.8773 29.8254 76.0939 29.2691 75.5035 28.5652C74.9132 27.8613 74.618 26.953 74.618 25.8404C74.618 24.1601 75.2311 22.8771 76.4572 21.9916C77.6834 21.0833 79.2956 20.6292 81.2938 20.6292C83.1785 20.6292 84.7452 21.0492 85.9941 21.8894C87.243 22.7295 88.0604 23.8308 88.4464 25.1932L84.4614 26.4194C84.2797 25.5565 83.9051 24.9435 83.3374 24.5801C82.7924 24.2168 82.1112 24.0352 81.2938 24.0352C80.4763 24.0352 79.8519 24.1828 79.4205 24.478C78.989 24.7504 78.7733 25.1365 78.7733 25.636C78.7733 26.181 79.0004 26.5897 79.4545 26.8622C79.9087 27.112 80.5218 27.305 81.2938 27.4412L82.2475 27.6115C83.5191 27.8386 84.6658 28.1451 85.6876 28.5311C86.7321 28.8944 87.5495 29.4281 88.1399 30.132C88.753 30.8132 89.0595 31.7442 89.0595 32.9249C89.0595 34.6961 88.4124 36.0698 87.1181 37.0462C85.8465 37.9999 84.1321 38.4767 81.975 38.4767Z" fill="#18181B"/>
<path d="M67.615 38V21.1061H71.9066V38H67.615ZM69.7608 19.1306C68.9888 19.1306 68.3303 18.8808 67.7853 18.3812C67.2631 17.8817 67.002 17.2232 67.002 16.4057C67.002 15.5883 67.2631 14.9298 67.7853 14.4302C68.3303 13.9307 68.9888 13.6809 69.7608 13.6809C70.5556 13.6809 71.2141 13.9307 71.7363 14.4302C72.2586 14.9298 72.5197 15.5883 72.5197 16.4057C72.5197 17.2232 72.2586 17.8817 71.7363 18.3812C71.2141 18.8808 70.5556 19.1306 69.7608 19.1306Z" fill="#18181B"/>
<path d="M54.1999 38L48.8184 21.1061H53.3824L57.2994 34.8664H57.9125L61.8294 21.1061H66.3935L61.0119 38H54.1999Z" fill="#18181B"/>
<path d="M40.8998 38.4767C39.2195 38.4767 37.7322 38.1248 36.4379 37.4209C35.1664 36.6943 34.1673 35.6838 33.4406 34.3895C32.7367 33.0725 32.3848 31.5284 32.3848 29.7573V29.3486C32.3848 27.5775 32.7367 26.0447 33.4406 24.7504C34.1445 23.4334 35.1323 22.423 36.4039 21.7191C37.6755 20.9925 39.1514 20.6292 40.8317 20.6292C42.4893 20.6292 43.9312 21.0038 45.1574 21.7531C46.3835 22.4798 47.3372 23.5016 48.0184 24.8186C48.6996 26.1129 49.0402 27.6229 49.0402 29.3486V30.8132H36.7445C36.7899 31.9712 37.2213 32.9136 38.0388 33.6402C38.8562 34.3668 39.8553 34.7301 41.0361 34.7301C42.2395 34.7301 43.1251 34.469 43.6928 33.9467C44.2605 33.4245 44.6919 32.8454 44.9871 32.2097L48.4953 34.0489C48.1774 34.6393 47.7119 35.2864 47.0988 35.9903C46.5084 36.6715 45.7137 37.2619 44.7146 37.7615C43.7155 38.2383 42.4439 38.4767 40.8998 38.4767ZM36.7785 27.6115H44.6805C44.5897 26.6351 44.1923 25.8517 43.4884 25.2614C42.8072 24.671 41.9103 24.3758 40.7977 24.3758C39.6396 24.3758 38.72 24.671 38.0388 25.2614C37.3576 25.8517 36.9375 26.6351 36.7785 27.6115Z" fill="#18181B"/>
<path d="M13.248 37.9999V14.1577H23.6024C25.101 14.1577 26.4067 14.4188 27.5193 14.9411C28.6319 15.4634 29.4948 16.2013 30.1079 17.155C30.721 18.1087 31.0275 19.2327 31.0275 20.527V20.9357C31.0275 22.3662 30.6869 23.5243 30.0057 24.4099C29.3245 25.2954 28.4844 25.9426 27.4852 26.3513V26.9644C28.3935 27.0098 29.0974 27.3277 29.597 27.9181C30.0965 28.4857 30.3463 29.2464 30.3463 30.2001V37.9999H25.8504V30.8473C25.8504 30.3023 25.7028 29.8595 25.4076 29.5189C25.1351 29.1783 24.6696 29.008 24.0111 29.008H17.744V37.9999H13.248ZM17.744 24.9208H23.1255C24.1928 24.9208 25.0216 24.6369 25.6119 24.0693C26.225 23.4789 26.5316 22.7068 26.5316 21.7532V21.4126C26.5316 20.4589 26.2364 19.6982 25.646 19.1305C25.0556 18.5401 24.2155 18.245 23.1255 18.245H17.744V24.9208Z" fill="#18181B"/>
</svg>
