<svg width="135" height="140" viewBox="0 0 135 140" fill="none" xmlns="http://www.w3.org/2000/svg">
<path opacity="0.55" d="M49.901 13.6579L60.4295 24.3421L60.6841 24.0912C60.957 23.8222 61.1817 23.5052 61.2789 23.1347C61.6018 21.904 61.9655 18.7772 58.7267 15.4905C57.7664 14.516 56.9201 12.8246 56.3021 11.3374C55.7588 10.0292 54.0224 9.59656 53.0132 10.5911L49.901 13.6579ZM49.7815 21.8212L45.5459 15.6317L45.5459 15.6317L49.7815 21.8212ZM42.7298 28.6216L48.5001 33.4126L42.7298 28.6216ZM21.8459 60.1443L28.8229 62.8959L21.8459 60.1443ZM20.7746 75.5864L13.5602 77.6363L20.7746 75.5864ZM26.3075 87.6283L32.5773 83.5125L26.3075 87.6283ZM30.2673 92.5579L26.506 99.0466L30.2673 92.5579ZM36.0443 96.5075L32.1373 102.909L36.0443 96.5075ZM43.096 100.19L45.2784 93.0144L43.096 100.19ZM50.5816 103.516L53.4303 96.5779L50.5816 103.516ZM56.5756 106.129L59.4423 99.1986L56.5756 106.129ZM62 100.5V115.5H62.3575C62.7406 115.5 63.1231 115.432 63.4525 115.236C64.5462 114.586 67 112.614 67 108C67 106.632 67.5844 104.833 68.1881 103.34C68.7194 102.027 67.7863 100.5 66.3694 100.5H62ZM49.901 13.6579C50.1924 13.3708 50.4072 13.2617 50.3654 13.2846C50.3076 13.3161 50.1512 13.393 49.7242 13.5671C49.428 13.6878 48.676 13.9819 48.0698 14.2505C47.3966 14.5487 46.4829 14.9905 45.5459 15.6317L54.0172 28.0106C53.8873 28.0995 53.8756 28.0845 54.145 27.9651C54.4814 27.8161 54.7127 27.732 55.3861 27.4575C56.325 27.0748 58.5596 26.1847 60.4295 24.3421L49.901 13.6579ZM45.5459 15.6317C41.9793 18.0724 39.2209 21.107 36.9595 23.8306L48.5001 33.4126C50.492 31.0137 52.1901 29.2609 54.0172 28.0106L45.5459 15.6317ZM36.9595 23.8306C35.797 25.2308 34.4316 26.5263 32.712 28.0976C31.0961 29.574 29.0481 31.3968 27.1704 33.4527L38.2462 43.5683C39.5559 42.1343 40.9943 40.8486 42.8301 39.1711C44.5623 37.5884 46.6138 35.6845 48.5001 33.4126L36.9595 23.8306ZM27.1704 33.4527C20.5855 40.6626 17.4585 50.8265 14.8689 57.3927L28.8229 62.8959C32.1364 54.4942 34.0683 48.1428 38.2462 43.5683L27.1704 33.4527ZM14.8689 57.3927C12.5169 63.3565 11.6153 70.7917 13.5602 77.6363L27.989 73.5365C27.1094 70.4409 27.4357 66.4132 28.8229 62.8959L14.8689 57.3927ZM13.5602 77.6363C15.0246 82.7902 17.1877 87.4025 20.0377 91.744L32.5773 83.5125C30.5232 80.3833 29.0177 77.1567 27.989 73.5365L13.5602 77.6363ZM20.0377 91.744C20.3638 92.2409 21.1984 93.5651 22.0616 94.7406C22.7162 95.6321 24.3021 97.7691 26.506 99.0466L34.0285 86.0692C34.3688 86.2664 34.575 86.4388 34.6421 86.4968C34.7184 86.5626 34.7347 86.585 34.6903 86.5372C34.5924 86.432 34.412 86.2164 34.152 85.8624C33.5981 85.1081 33.1359 84.3635 32.5773 83.5125L20.0377 91.744ZM26.506 99.0466C27.0963 99.3887 27.7453 99.8476 28.7294 100.565C29.6049 101.204 30.8304 102.112 32.1373 102.909L39.9513 90.1055C39.2818 89.697 38.5985 89.1978 37.5694 88.4471C36.6488 87.7756 35.3975 86.8628 34.0285 86.0692L26.506 99.0466ZM32.1373 102.909C33.8595 103.961 37.3487 106.281 40.9136 107.365L45.2784 93.0144C44.0241 92.6329 42.5945 91.7187 39.9513 90.1055L32.1373 102.909ZM40.9136 107.365C41.5975 107.573 42.3848 107.917 43.5642 108.495C44.585 108.995 46.1696 109.812 47.733 110.454L53.4303 96.5779C52.4694 96.1833 51.6056 95.731 50.1618 95.0239C48.8766 94.3944 47.1833 93.5938 45.2784 93.0144L40.9136 107.365ZM47.733 110.454C48.6091 110.814 49.4999 111.211 50.5109 111.664C51.4864 112.101 52.5856 112.595 53.7089 113.06L59.4423 99.1986C58.5565 98.8322 57.6616 98.4312 56.6437 97.9751C55.6613 97.535 54.5596 97.0416 53.4303 96.5779L47.733 110.454ZM53.7089 113.06C53.9497 113.159 54.2315 113.289 54.7233 113.517C55.1576 113.718 55.7582 113.996 56.3933 114.257C57.5406 114.729 59.6006 115.5 62 115.5V100.5C62.3809 100.5 62.5889 100.561 62.5552 100.552C62.5253 100.544 62.3894 100.504 62.1007 100.385C61.8069 100.264 61.4854 100.118 61.0231 99.9037C60.6183 99.7164 60.0288 99.4412 59.4423 99.1986L53.7089 113.06Z" fill="#8B5CF6"/>
<g clip-path="url(#clip0_331_2054)">
<path d="M134.946 133.956C134.229 129.496 133.431 125.045 132.571 120.603C132.284 119.116 131.236 118.76 130.259 117.852C130.089 117.701 130.026 117.505 130.053 117.282C130.573 112.734 130.913 108.167 131.093 103.582C131.236 99.7279 130.582 96.0425 129.139 92.5173C128.476 90.8972 125.913 88.2889 126.531 86.5531C127.616 83.4819 128.53 80.3662 129.273 77.2061C133.046 61.2272 129.471 42.8715 120.357 29.1804C110.392 14.243 94.4235 3.35601 76.2861 0.872382C71.7696 0.249249 68.1135 -0.0356111 65.3176 -3.58419e-06C46.6425 0.284857 30.9963 6.78324 18.3611 19.4862C7.56286 30.3732 0.922637 44.9545 0.107171 60.3281C-0.762062 76.8767 3.65579 91.6895 13.3787 104.766C17.5366 110.366 22.9133 115.288 29.5267 119.543C44.7517 129.353 61.7959 132.327 80.6681 128.463C85.077 127.564 89.0826 126.158 92.685 124.244C94.1994 123.434 94.6296 122.241 93.9844 120.656C93.8589 120.354 93.6887 119.935 93.4646 119.383C92.8105 117.79 91.6993 117.354 90.14 118.084C84.9426 120.478 79.2791 122.187 73.1676 123.193C68.7856 123.914 64.4304 124.03 60.1112 123.532C46.7949 122.018 35.1364 116.766 25.1447 107.793C20.9957 104.063 17.465 99.6299 14.5257 94.5024C7.5539 82.2891 5.02685 69.4525 6.9535 55.9929C7.64351 51.1592 8.82639 46.7705 10.5021 42.8181C14.5526 33.2664 20.7179 25.2636 29.0069 18.8275C38.2459 11.6348 48.9814 7.44198 61.2313 6.24912C67.755 5.61709 74.7627 6.40045 82.2452 8.59922C95.454 12.4804 107.372 20.9283 114.765 32.5364C118.09 37.744 120.509 42.8359 122.051 47.8209C125.788 59.9097 125.384 71.7848 120.832 83.4463C120.527 84.2297 120.115 84.2831 119.586 83.6421L118.905 82.8054C118.377 82.1555 118.224 81.4256 118.475 80.6155C121.092 72.0341 121.818 64.0491 120.653 56.6338C118.637 43.7528 112.74 32.75 102.955 23.6523C95.4361 16.6465 85.5609 12.0888 75.3362 10.4508C71.0079 9.76537 65.8194 9.60513 61.2761 9.87219C48.838 10.6021 37.7889 15.2311 28.1108 23.7858C18.8181 32.0023 13.0202 41.9635 10.7082 53.6517C6.21869 76.4316 15.2157 97.8496 34.4822 111.238C42.3143 116.677 51.0962 119.659 60.828 120.167C70.8197 120.683 79.772 119.499 88.6973 115.155C89.3873 114.817 90.0863 114.389 90.7852 113.846C90.9465 113.722 91.0989 113.722 91.2423 113.882L98.7428 121.769C98.9489 121.974 98.9489 122.303 98.7607 122.526L97.999 123.442C97.8018 123.683 97.7301 123.959 97.7839 124.261C98.3037 127.422 98.689 130.395 98.9041 133.181C99.1639 136.35 100.078 139.181 103.698 139.502C111.96 140.231 119.551 140.205 126.478 139.457C129.399 139.145 135.636 138.318 134.937 133.991L134.946 133.956ZM87.9804 108.621C76.7072 114.336 65.0846 115.671 53.1304 112.627C41.221 109.591 30.6916 101.188 23.8274 91.1019C19.6515 84.9507 17.4291 77.7936 16.3986 70.3783C16.3 69.6573 16.2731 68.9718 16.3269 68.322C16.3448 68.1172 16.524 67.957 16.7391 67.9748C19.0421 68.135 23.3793 68.3576 25.1626 66.9689C27.5104 65.144 26.6322 61.5477 23.4869 61.0848C21.0763 60.7287 18.8898 60.6041 16.9362 60.702C16.4971 60.7198 16.1387 60.3459 16.1835 59.9097C17.1244 51.2749 21.0046 41.287 27.0982 34.5482C29.3027 32.1091 31.3637 29.7501 34.1417 27.6404C35.8891 26.3229 37.529 24.8541 39.3661 23.7146C50.2718 16.9136 62.1185 14.5991 74.8792 16.7623C82.8277 18.1153 90.0504 21.9966 96.852 27.4267C102.533 31.9667 107.238 38.7054 110.5 45.2839C112.91 50.1532 114.192 54.9959 114.461 60.2569C114.479 60.5595 114.228 60.8177 113.914 60.7999C111.199 60.7109 108.493 60.8355 105.795 61.1827C105.078 61.2717 104.576 61.9126 104.648 62.6248L105.105 66.8799C105.141 67.2716 105.401 67.6365 105.795 67.868C106.028 68.0104 106.324 68.0727 106.682 68.0727C109.138 68.046 111.593 68.0727 114.048 68.1529C114.281 68.1529 114.407 68.2775 114.407 68.5089C114.496 70.9659 113.995 77.8025 111.486 79.1467C110.993 79.4137 110.374 79.2268 110.106 78.7372C108.044 74.945 106.27 70.9481 104.792 66.7464C103.591 63.3458 101.512 58.5388 98.0707 56.5092C95.5615 55.0226 92.6044 56.8475 91.0272 58.8237C89.1543 61.1916 89.9429 66.5416 90.5881 69.141C91.2422 71.8115 91.8875 74.3931 92.5058 76.8856C92.8642 78.3099 93.0166 79.663 92.9807 80.9449C92.9628 81.5502 92.7477 81.6303 92.3534 81.1763C89.1185 77.5265 84.145 73.494 79.0909 76.8411C75.3631 79.3158 75.9635 83.7223 77.8991 87.105C81.7613 93.906 85.2024 100.858 88.2313 107.944C88.3568 108.247 88.2761 108.47 87.9804 108.63V108.621ZM96.8251 113.285C95.1314 111.167 93.3302 107.998 91.4125 103.769C88.312 96.8882 85.7401 90.6123 81.2685 83.8914C80.9996 83.4819 80.8742 83.0012 80.9011 82.5205C80.9728 81.3098 81.2954 80.5799 81.8599 80.3217C82.8994 79.8499 83.6253 79.841 84.0375 80.3039C88.1148 84.7727 91.3588 89.3661 93.7872 94.0752C94.8088 96.0514 97.1835 99.4341 99.612 99.621C99.836 99.6388 100.042 99.5854 100.239 99.4608C101.341 98.7219 102.085 97.7427 102.471 96.4876C102.748 95.6152 102.668 94.4579 102.238 93.0247C99.9525 85.3335 97.7391 77.5533 95.6063 69.7018C94.7102 66.4081 93.7245 62.9541 94.9343 61.2183C95.4182 60.5239 96.4039 60.4171 97.0312 60.9957C97.8287 61.7257 98.447 62.7049 98.8682 63.9245C101.001 70.0222 103.295 76.0488 105.75 82.0131C106.306 83.3662 107.13 84.5946 108.206 85.6629C108.546 86.0011 109.066 86.0991 109.505 85.8943C111.082 85.1644 113.376 83.6421 114.792 85.6451C115.868 87.1762 116.683 88.7607 117.221 90.3898C117.31 90.6479 117.454 90.8794 117.651 91.0663C118.717 92.0722 120.259 91.2444 121.423 90.8438C121.674 90.7548 121.952 90.7993 122.167 90.9506C122.669 91.3067 123.09 91.7607 123.404 92.3037C125.877 96.5677 126.818 101.384 126.227 106.76C125.841 110.25 125.393 113.205 124.874 115.618C124.533 117.211 124.506 118.36 122.481 118.591C117.481 119.152 112.158 120.06 106.521 121.306C105.706 121.484 104.845 121.279 104.191 120.736C101.449 118.475 98.9937 115.992 96.8251 113.285ZM127.302 126.656L108.116 129.54C105.571 129.923 103.403 129.629 103.286 128.873L102.963 126.736C102.847 125.98 104.827 125.063 107.372 124.68L126.558 121.796C127.203 121.698 127.813 122.143 127.902 122.784L128.288 125.321C128.377 125.962 127.938 126.567 127.293 126.656H127.302Z" fill="#FAFAFA"/>
<path d="M62.6022 19.1925C63.3191 19.4239 63.821 20.056 63.8926 20.7948L64.6543 29.4296C64.735 30.302 64.0808 31.0676 63.2026 31.1477L61.2222 31.3257C60.8996 31.3524 60.7294 31.2011 60.7204 30.8896L60.2455 19.7088C60.2096 18.8631 60.5949 18.5693 61.4104 18.8275L62.6022 19.2014V19.1925Z" fill="#FAFAFA"/>
<path d="M77.0299 23.1449L74.1892 20.6969C74.1355 20.6524 74.0996 20.5812 74.0996 20.5099V18.8809C74.0996 18.694 74.2967 18.5693 74.4581 18.6584L76.313 19.6465C76.3668 19.6732 76.4116 19.7266 76.4385 19.7889L77.4332 22.8868C77.5049 23.1182 77.2271 23.3051 77.0299 23.1449Z" fill="#FAFAFA"/>
<path d="M71.0439 28.5038C71.492 28.5216 71.8952 28.3881 72.2627 28.1122C72.7376 27.7561 73.4276 28.0231 73.5351 28.6107C73.8219 30.2041 73.1409 31.0409 71.501 31.1299C69.5205 31.2367 67.5043 31.1566 65.4432 30.8984C65.1385 30.8628 65.031 30.7026 65.1206 30.4088C65.6224 28.7175 64.7532 26.946 66.7605 25.8867C67.7014 25.3882 68.5348 24.6849 69.2607 23.7769C69.4309 23.5722 69.2607 23.2695 69.0008 23.2784C67.9434 23.3496 66.9487 23.6612 66.0257 24.2309C65.2281 24.7205 64.7711 24.498 64.6457 23.5811C64.5381 22.7888 64.5471 21.961 64.6636 21.0886C64.789 20.1361 65.3178 19.5663 66.2587 19.3616C69.3682 18.6851 71.5906 19.4951 72.9258 21.8096C73.9205 23.5455 73.7502 25.2012 72.424 26.7858C71.9669 27.3199 71.3755 27.6404 70.9006 28.1656C70.6945 28.397 70.7482 28.5038 71.0529 28.5127L71.0439 28.5038Z" fill="#FAFAFA"/>
<path d="M55.5687 22.2992C56.0615 22.2725 56.3841 22.0322 56.5275 21.5871C56.6171 21.3289 56.5634 21.053 56.411 20.8304L56.187 20.5099C55.9898 20.2429 56.0436 20.047 56.3483 19.9046C56.5902 19.7978 56.8232 19.8423 57.0473 20.047C57.8538 20.7681 57.7462 22.0945 56.7426 22.6464C55.1564 23.5188 53.1223 22.5485 53.2477 20.6613C53.2836 20.2162 53.5166 19.9936 53.9557 19.9758L54.6009 19.9491C54.8966 19.9402 55.1564 20.145 55.2013 20.4387C55.2729 20.9194 55.264 21.3912 55.1744 21.863C55.1385 22.1034 55.3267 22.3259 55.5687 22.3081V22.2992Z" fill="#FAFAFA"/>
<path d="M80.6061 22.6909C80.4806 23.0114 80.1132 23.1716 79.7906 23.047L79.692 23.0114C79.3694 22.8779 79.2081 22.5218 79.3336 22.2013L79.8354 20.9461C79.9609 20.6257 80.3283 20.4654 80.6509 20.5901L80.7495 20.6257C81.0721 20.7592 81.2334 21.1153 81.1079 21.4357L80.6061 22.6909Z" fill="#FAFAFA"/>
<path d="M51.0787 22.5396C51.1594 23.225 50.5052 23.8482 49.6181 23.9461C48.7309 24.044 47.9602 23.5633 47.8886 22.8868C47.8079 22.2013 48.4621 21.5782 49.3492 21.4803C50.2364 21.3823 51.007 21.863 51.0787 22.5396Z" fill="#FAFAFA"/>
<path d="M83.3482 23.501C84.1726 22.7354 85.006 22.5752 85.8125 23.0114C86.2606 23.2428 86.2785 23.5188 85.8663 23.8215C85.024 24.4268 83.9576 24.4357 82.6582 23.8393C82.2012 23.6345 81.9592 23.1271 82.0847 22.6464C82.237 22.0767 82.5596 21.863 83.0704 22.0055C83.3661 22.0856 83.4289 22.2547 83.2496 22.504C83.0615 22.7621 82.9629 23.047 82.945 23.3318C82.927 23.7146 83.0615 23.768 83.3482 23.5099V23.501Z" fill="#FAFAFA"/>
<path d="M45.7198 32.3049C44.4114 32.848 42.6102 31.5394 41.7052 29.3762C40.7911 27.2131 41.1137 25.0232 42.431 24.4802C43.7394 23.9372 45.5406 25.2458 46.4456 27.4089C47.3597 29.5721 47.0371 31.7619 45.7198 32.3049Z" fill="#FAFAFA"/>
<path d="M87.9629 25.3437C88.2766 24.7116 88.7157 24.6048 89.2713 25.0588L91.0008 26.4386C91.5205 26.857 91.637 27.6137 91.2517 28.1656C90.2749 29.5988 89.5491 32.5186 87.0758 31.7352C86.323 31.4949 85.8929 30.7026 86.1169 29.946C86.5471 28.4771 87.1564 26.9371 87.954 25.3437H87.9629Z" fill="#FAFAFA"/>
<path d="M36.2033 30.2397C36.2212 29.8124 36.3198 29.394 36.5169 29.0024C36.7499 28.5306 37.422 28.486 37.7088 28.9311C38.2106 29.6967 38.2554 30.3376 37.8432 30.8539C37.5475 31.2367 37.1352 31.3614 36.6155 31.2367C36.042 31.1032 35.4774 31.1032 34.9129 31.2367C34.7964 31.2634 34.6709 31.1744 34.662 31.0587L34.644 30.8807C34.6351 30.7382 34.7516 30.6225 34.886 30.6492L35.6029 30.7382C35.9882 30.7916 36.1854 30.6225 36.2033 30.2486V30.2397Z" fill="#FAFAFA"/>
<path d="M94.236 29.5009C94.2808 29.2338 94.5407 29.0558 94.8005 29.1092L94.9081 29.127C95.9117 29.305 96.6196 30.0528 96.4852 30.7827L96.4494 30.9608C96.315 31.6996 95.383 32.1447 94.3883 31.9578L94.2808 31.94C94.012 31.8955 93.8327 31.6373 93.8865 31.3703L94.236 29.492V29.5009Z" fill="#FAFAFA"/>
<path d="M32.5474 36.382C32.5832 36.4532 32.5474 36.5244 32.4936 36.5601L32.4309 36.5868C31.9828 36.8093 31.2301 36.1862 30.7462 35.207L30.6297 34.9755C30.1458 33.9963 30.1189 33.026 30.567 32.8035L30.6297 32.7678C30.6924 32.7411 30.7641 32.7678 30.8 32.8302L32.5384 36.382H32.5474Z" fill="#FAFAFA"/>
<path d="M100.311 35.2515C100.49 35.2693 100.634 35.3316 100.732 35.4295C100.912 35.6076 100.903 35.7856 100.714 35.9725C100.266 36.4087 99.7376 36.569 99.1372 36.4888C98.8774 36.4443 98.6982 36.204 98.7161 35.9458L99.0297 33.204C99.0745 32.7946 99.2896 32.6699 99.666 32.848C100.114 33.0705 100.463 33.48 100.705 34.0675C100.849 34.4147 100.741 34.664 100.392 34.8064C100.302 34.842 100.231 34.9043 100.186 34.9933C100.096 35.1447 100.15 35.2248 100.311 35.2426V35.2515Z" fill="#FAFAFA"/>
<path d="M29.9747 45.4263C28.4602 46.5391 26.2289 46.094 24.9923 44.4204C23.7556 42.7558 23.9796 40.5036 25.503 39.3909C27.0175 38.2781 29.2488 38.7232 30.4854 40.3968C31.7221 42.0614 31.4981 44.3136 29.9747 45.4263Z" fill="#FAFAFA"/>
<path d="M105.024 39.6668L106.593 42.2395C106.942 42.8181 106.799 43.5658 106.261 43.9753L104.585 45.2394C103.985 45.7023 103.116 45.5599 102.686 44.9367L101.368 43.0228C101.046 42.5599 101.055 41.9457 101.386 41.4917L102.811 39.56C103.367 38.8033 104.532 38.8478 105.024 39.6579V39.6668Z" fill="#FAFAFA"/>
<path d="M65.8202 64.4853C65.9367 64.5387 66.0801 64.5298 66.1787 64.4408C72.801 58.6812 79.4143 53.0463 86.0187 47.5183C88.017 45.8447 93.1249 41.0199 96.0283 42.2127C97.5517 42.8359 99.3887 45.3284 97.713 46.8862C87.5779 56.2955 78.5003 64.5654 70.4711 71.7047C69.109 72.9154 67.4959 74.0637 65.9546 75.0696C65.6051 75.3011 65.1481 75.2922 64.8076 75.0429C64.1714 74.5889 63.571 74.0904 62.9885 73.5474C57.6566 68.5445 52.3337 63.3636 47.0466 58.0136C46.3566 57.3282 45.8458 56.5448 45.4873 55.6813C44.2865 52.7615 46.5716 50.5449 49.5557 50.6161C50.2188 50.6339 51.2852 51.3016 52.7279 52.6369C56.9666 56.527 61.1604 60.3637 65.3094 64.147C65.4618 64.2894 65.632 64.3962 65.8202 64.4942V64.4853Z" fill="#FAFAFA"/>
<path d="M25.5659 49.6102C25.6376 49.6636 25.6555 49.7794 25.5927 49.8506L25.5031 49.9663C25.0909 50.4826 24.2396 50.5093 23.6034 50.0197L22.8058 49.4055C22.1696 48.9159 21.9904 48.088 22.3936 47.5539L22.4832 47.4382C22.546 47.3669 22.6535 47.3491 22.7341 47.4114L25.5659 49.6102Z" fill="#FAFAFA"/>
<path d="M107.901 48.6933C107.919 48.3373 108.062 48.0257 108.322 47.7675C108.501 47.5806 108.672 47.5895 108.815 47.812L110.267 50.0108C110.392 50.1888 110.356 50.4292 110.186 50.5627C109.953 50.7586 109.702 50.7675 109.451 50.5894C108.6 49.9841 107.731 49.9307 106.862 50.4292C106.655 50.5449 106.431 50.5627 106.207 50.4826C105.724 50.3135 105.562 49.9129 105.715 49.2541C105.813 48.8536 106.055 48.6933 106.467 48.7823L107.507 48.996C107.758 49.0494 107.892 48.9515 107.91 48.6933H107.901Z" fill="#FAFAFA"/>
<path d="M20.0459 53.8386C19.6068 53.8742 19.4724 53.6962 19.6426 53.2867L19.9384 52.5835C20.0817 52.2452 20.485 52.0939 20.8166 52.2363L24.0515 53.6606C24.1591 53.7051 24.2487 53.803 24.2756 53.9187L24.419 54.4351C24.4906 54.711 24.419 54.7733 24.1591 54.6309C22.9941 53.9543 21.6231 53.6873 20.028 53.8475L20.0459 53.8386Z" fill="#FAFAFA"/>
<path d="M109.927 52.7615C110.491 52.5656 110.859 52.7615 111.038 53.3223L111.468 54.7021C111.549 54.9603 111.45 55.0582 111.19 55.0137L108.717 54.533C108.17 54.4261 108.072 54.1591 108.439 53.7407C108.815 53.3045 109.308 52.9751 109.927 52.7704V52.7615Z" fill="#FAFAFA"/>
<path d="M19.7143 56.1175L23.2719 57.6486C23.478 57.7376 23.4421 58.0403 23.2181 58.0848L19.8577 58.6723C19.7233 58.6901 19.6068 58.6011 19.5888 58.4676L19.4007 56.3489C19.3827 56.1709 19.562 56.0463 19.7143 56.1175Z" fill="#FAFAFA"/>
<path d="M108.313 57.524C109.451 57.2925 110.545 57.2747 111.602 57.4884C112.014 57.5685 112.346 57.8712 112.462 58.2807L112.624 58.8326C112.713 59.153 112.382 59.429 112.077 59.2955C110.33 58.4854 108.493 58.0581 106.566 58.0136C105.822 57.9958 105.553 57.6219 105.742 56.8831C105.804 56.6427 106.1 56.5715 106.27 56.7495C106.799 57.3192 107.489 57.702 108.304 57.524H108.313Z" fill="#FAFAFA"/>
<path d="M112.946 69.6217C113.233 70.8501 112.642 72.7818 112.14 73.8234C112.14 73.8234 112.122 73.8412 112.122 73.8234L111.943 73.7432C111.862 73.7076 111.835 73.6453 111.871 73.5652C112.346 72.2655 112.364 71.135 111.916 70.1825C111.817 69.9688 111.862 69.7997 112.059 69.6751L112.454 69.4169C112.704 69.2478 112.875 69.319 112.946 69.6128V69.6217Z" fill="#FAFAFA"/>
<path d="M24.3121 70.7522C24.3479 71.0193 24.1598 71.2596 23.8999 71.2952L19.5716 71.8738C19.3028 71.9095 19.0608 71.7225 19.025 71.4644L18.9175 70.6721C18.8816 70.405 19.0698 70.1647 19.3297 70.1291L23.6579 69.5505C23.9268 69.5148 24.1687 69.7018 24.2046 69.9599L24.3121 70.7522Z" fill="#FAFAFA"/>
<path d="M110.384 75.2833C109.326 73.6631 108.905 72.2121 109.111 70.9391C109.183 70.5119 109.515 70.1736 109.945 70.0935L110.68 69.9599C111.145 69.8709 111.262 70.0312 111.02 70.4317C110.527 71.2596 110.258 72.1854 110.205 73.2091C110.196 73.4317 110.24 73.6364 110.357 73.8234C110.608 74.2328 110.769 74.669 110.832 75.123C110.93 75.8352 110.787 75.8886 110.393 75.2833H110.384Z" fill="#FAFAFA"/>
<path d="M19.7771 75.0696C19.7682 74.9717 19.8399 74.8649 19.9474 74.856H20.0728C22.573 74.5266 24.6341 74.5177 24.6699 74.8204L24.6968 75.0429C24.7326 75.3456 22.7433 75.8352 20.2431 76.1467L20.1176 76.1645C20.0101 76.1824 19.9115 76.0933 19.8936 75.9865L19.7771 75.0607V75.0696Z" fill="#FAFAFA"/>
<path d="M23.5766 80.7935L23.0031 81.2475C22.5461 81.6036 21.874 81.3455 21.7754 80.7846L21.6321 79.9479C21.5604 79.5651 21.7934 79.2001 22.1697 79.0844L23.3885 78.7283C24.0695 78.5325 24.643 79.2802 24.2398 79.8767L23.7469 80.6244C23.7021 80.6956 23.6483 80.7579 23.5766 80.8024V80.7935Z" fill="#FAFAFA"/>
<path d="M30.3601 82.9567L31.6774 84.3009C32.4749 85.111 32.3674 86.4284 31.4444 87.0961L28.308 89.3661C27.4746 89.9625 26.3096 89.7845 25.7003 88.9566L24.1231 86.8023C23.4152 85.8409 23.7826 84.47 24.8938 83.9982L28.2901 82.5472C28.998 82.2446 29.8224 82.4048 30.3601 82.9567Z" fill="#FAFAFA"/>
<path d="M29.975 92.5351C29.4194 92.633 28.837 92.4995 28.3979 92.1523L28.0305 91.8675C27.681 91.6004 27.8064 91.0485 28.2366 90.9506C29.2223 90.728 30.2349 90.6746 31.2565 90.7993C31.5791 90.8438 31.7673 91.182 31.6149 91.4758C31.3102 92.0366 30.7726 92.3927 29.975 92.5262V92.5351Z" fill="#FAFAFA"/>
<path d="M35.7099 95.7309C35.5307 95.9624 35.1364 95.9624 34.8317 95.7309C34.5181 95.4995 34.4195 95.1256 34.5987 94.8941C34.7779 94.6627 35.1722 94.6627 35.4769 94.8941C35.7906 95.1256 35.8891 95.4995 35.7099 95.7309Z" fill="#FAFAFA"/>
<path d="M33.533 97.2976C33.4703 97.5469 33.2194 97.7071 32.9685 97.6448L32.8341 97.6092C31.7766 97.351 31.0329 96.719 31.1583 96.1849L31.2121 95.9534C31.3465 95.4193 32.3054 95.1879 33.3538 95.4371L33.4882 95.4727C33.7391 95.5351 33.8915 95.7843 33.8288 96.0336L33.5241 97.2976H33.533Z" fill="#FAFAFA"/>
<path d="M41.2836 105.603C40.6743 105.345 40.3786 104.651 40.6295 104.036L41.884 101.01C42.7264 98.989 44.42 97.7605 45.6656 98.2679L45.8986 98.3659C47.1532 98.8822 47.4848 100.939 46.6424 102.959L45.3878 105.986C45.128 106.6 44.429 106.894 43.8107 106.645L41.2836 105.612V105.603Z" fill="#FAFAFA"/>
<path d="M35.6472 99.8436C35.5128 100.084 35.011 100.075 34.5181 99.8169C34.0253 99.5587 33.7295 99.1492 33.855 98.9C33.9894 98.6596 34.4912 98.6685 34.9841 98.9267C35.477 99.1848 35.7727 99.5943 35.6472 99.8436Z" fill="#FAFAFA"/>
<path d="M39.8146 101.366C39.8505 101.677 39.6264 101.962 39.3128 101.998L38.7751 102.06C38.4615 102.096 38.1837 101.873 38.1389 101.562L37.9686 100.093C37.9328 99.7813 38.1568 99.4964 38.4704 99.4608L39.0081 99.3985C39.3217 99.3629 39.5995 99.5854 39.6444 99.897L39.8146 101.366Z" fill="#FAFAFA"/>
<path d="M64.7531 105.505C64.7083 106.048 64.8607 106.102 65.1922 105.665C66.3303 104.179 67.5221 101.535 69.87 102.158C70.2195 102.247 70.4435 102.576 70.4166 102.941C70.2912 104.116 70.103 105.016 70.3897 106.235C70.7302 107.677 71.25 110.179 69.7624 111.149C67.6297 112.547 65.4073 113.054 63.0864 112.653C59.7439 112.084 60.5145 105.318 61.0163 103.137C61.2583 102.078 61.9214 101.535 63.0057 101.49C63.391 101.473 63.7943 101.508 64.1976 101.606C65.1295 101.82 65.47 102.39 65.2191 103.298C64.9413 104.303 64.789 105.042 64.7531 105.505Z" fill="#FAFAFA"/>
<path d="M82.4701 107.624C82.8733 106.645 82.8285 105.71 82.3267 104.829C82.1206 104.473 82.2281 104.01 82.5597 103.76L82.7031 103.654C82.9002 103.511 83.169 103.573 83.2766 103.787L84.7462 106.707C84.8448 106.903 84.8448 107.108 84.7462 107.303C84.3161 108.096 83.6081 108.327 82.6314 107.998C82.479 107.944 82.3984 107.766 82.4611 107.624H82.4701Z" fill="#FAFAFA"/>
<path d="M47.1715 107.891L48.3903 106.2C48.6233 105.879 49.1251 106.013 49.152 106.395L49.385 108.799C49.4208 109.128 49.0713 109.36 48.7846 109.217L47.3328 108.514C47.0999 108.398 47.0192 108.105 47.1715 107.891Z" fill="#FAFAFA"/>
<path d="M79.5129 109.333C79.5487 109.689 79.2799 110.01 78.9125 110.045H78.7691C78.4107 110.09 78.088 109.823 78.0522 109.467L77.8909 107.695C77.8551 107.339 78.1239 107.018 78.4913 106.983H78.6347C78.9931 106.938 79.3157 107.205 79.3516 107.562L79.5129 109.333Z" fill="#FAFAFA"/>
<path d="M53.6241 107.499C55.5776 108.3 57.7014 108.924 58.5169 110.998C58.6424 111.318 58.5348 111.461 58.1943 111.416L57.9255 111.38C57.6029 111.345 57.3251 111.149 57.1817 110.864C56.5813 109.689 55.4522 109.413 53.7854 110.045C53.0416 110.33 52.2441 109.769 52.262 108.986C52.262 108.63 52.3785 108.265 52.5667 107.882C52.7997 107.428 53.1402 107.303 53.6241 107.499Z" fill="#FAFAFA"/>
<path d="M75.3544 110.152C75.3544 110.49 75.0766 110.757 74.7361 110.757H74.6465C74.3059 110.757 74.0371 110.481 74.0371 110.143V108.559C74.0461 108.22 74.3239 107.953 74.6644 107.953H74.763C75.1035 107.953 75.3723 108.229 75.3723 108.567V110.152H75.3634H75.3544Z" fill="#FAFAFA"/>
</g>
<defs>
<clipPath id="clip0_331_2054">
<rect width="135" height="140" fill="white"/>
</clipPath>
</defs>
</svg>
