<svg width="145" height="120" viewBox="0 0 145 120" fill="none" xmlns="http://www.w3.org/2000/svg">
<path opacity="0.55" d="M71.8031 2.76579L66.1969 16.6787L66.5285 16.8124C66.8838 16.9555 67.2641 17.0353 67.6427 16.977C68.9001 16.7829 71.913 15.871 73.6377 11.591C74.149 10.322 75.3633 8.87204 76.4813 7.71277C77.4649 6.69336 77.17 4.92838 75.8558 4.39883L71.8031 2.76579ZM60.1638 9.58296L62.5512 16.6928L60.1638 9.58296ZM49.2118 13.8456L53.3073 20.1287L49.2118 13.8456ZM45.3537 16.2973L40.5534 10.5348L45.3537 16.2973ZM40.2649 22.9281L46.8234 26.5663L40.2649 22.9281ZM34.8996 37.9727L42.3976 38.1458L34.8996 37.9727ZM34.0422 49.9248L26.8162 47.9163L34.0422 49.9248ZM23.3392 51.6103L24.6904 58.9876L23.3392 51.6103ZM20.7118 52.7944L23.2963 59.835L20.7118 52.7944ZM15.6645 54.6053L18.8265 61.4062L15.6645 54.6053ZM14.7933 69.7614L8.04936 73.043L14.7933 69.7614ZM19.4119 76.615L14.1898 81.9983L19.4119 76.615ZM31.1106 81.9224L34.4845 75.2241L31.1106 81.9224ZM39.131 101.244L34.9496 107.47L39.131 101.244ZM43.8049 102.999L43.9309 110.498L43.8049 102.999ZM49.3916 102.191L48.1153 94.8003L49.3916 102.191ZM58.6288 99.4884L61.2792 106.504L58.6288 99.4884ZM60.2882 91.2362V106.236H60.6457C61.0288 106.236 61.4113 106.168 61.7407 105.972C62.8345 105.322 65.2882 103.351 65.2882 98.7362C65.2882 97.368 65.8726 95.5693 66.4763 94.0762C67.0076 92.7631 66.0745 91.2362 64.6576 91.2362H60.2882ZM71.8031 2.76579C69.4212 1.80601 66.7617 1.52033 64.6478 1.50107C62.5015 1.4815 59.9901 1.72974 57.7763 2.4731L62.5512 16.6928C62.5421 16.6959 62.5923 16.6788 62.7103 16.6532C62.8254 16.6283 62.9797 16.6007 63.1713 16.5758C63.5609 16.5251 64.0243 16.496 64.5111 16.5004C64.9997 16.5049 65.4391 16.5425 65.7866 16.5974C66.1594 16.6562 66.2777 16.7113 66.1969 16.6787L71.8031 2.76579ZM57.7763 2.4731C56.9768 2.74158 56.1436 2.99704 55.1664 3.29895C54.2264 3.58935 53.1676 3.91844 52.098 4.28784C49.979 5.01965 47.4866 6.0175 45.1163 7.56253L53.3073 20.1287C54.184 19.5572 55.3554 19.0322 56.9947 18.4661C57.8042 18.1865 58.6481 17.9228 59.594 17.6306C60.5027 17.3499 61.5386 17.0328 62.5512 16.6928L57.7763 2.4731ZM45.1163 7.56253C44.6699 7.85354 44.3651 8.00912 43.4537 8.54369C42.7003 8.98551 41.6316 9.63663 40.5534 10.5348L50.154 22.0599C50.2685 21.9645 50.486 21.8088 51.0421 21.4826C51.4401 21.2492 52.4682 20.6756 53.3073 20.1287L45.1163 7.56253ZM40.5534 10.5348C37.391 13.1691 35.1535 16.6813 33.7065 19.2899L46.8234 26.5663C47.9851 24.4721 49.1421 22.9028 50.154 22.0599L40.5534 10.5348ZM33.7065 19.2899C31.258 23.7037 27.5764 30.2274 27.4016 37.7996L42.3976 38.1458C42.474 34.8332 44.1113 31.4553 46.8234 26.5663L33.7065 19.2899ZM27.4016 37.7996C27.3432 40.3291 27.4042 41.5272 27.3216 43.728C27.2519 45.588 27.0868 46.9427 26.8162 47.9163L41.2683 51.9333C42.0065 49.2774 42.2263 46.5513 42.3111 44.2903C42.3831 42.37 42.3685 39.4068 42.3976 38.1458L27.4016 37.7996ZM26.8162 47.9163C27.2776 46.2562 28.2602 45.1876 28.9824 44.6164C29.6508 44.0877 30.2166 43.8785 30.3766 43.8225C30.6664 43.721 30.6259 43.7806 30.0159 43.8289C29.5013 43.8697 28.883 43.881 28.212 43.8753C27.8843 43.8725 27.5735 43.8661 27.2628 43.8596C26.9884 43.8538 26.6279 43.8457 26.3261 43.8457V58.8457C26.5664 58.8457 29.1519 58.9444 31.2007 58.7821C32.2542 58.6986 33.8064 58.5147 35.3352 57.9792C36.4627 57.5843 40.102 56.1292 41.2683 51.9333L26.8162 47.9163ZM26.3261 43.8457C24.9549 43.8457 23.3977 43.9749 21.9879 44.2331L24.6904 58.9876C25.147 58.904 25.7965 58.8457 26.3261 58.8457V43.8457ZM21.9879 44.2331C21.0324 44.4081 20.2509 44.7044 19.743 44.9214C19.2233 45.1434 18.7733 45.3782 18.4967 45.5251C18.0941 45.739 18.0964 45.7429 17.9071 45.8405C17.7861 45.903 17.895 45.8391 18.1272 45.7538L23.2963 59.835C23.9328 59.6014 24.4678 59.3344 24.7847 59.1709C24.9559 59.0826 25.1151 58.9972 25.2343 58.933C25.3711 58.8593 25.4463 58.8185 25.5341 58.7718C25.7089 58.679 25.7119 58.6829 25.6369 58.7149C25.5736 58.742 25.2283 58.8891 24.6904 58.9876L21.9879 44.2331ZM18.1272 45.7538C17.4417 46.0055 16.8569 46.1813 15.8051 46.5303C14.8865 46.8351 13.7085 47.2438 12.5025 47.8045L18.8265 61.4062C19.2266 61.2202 19.7408 61.0286 20.5287 60.7671C21.1833 60.55 22.3191 60.1937 23.2963 59.835L18.1272 45.7538ZM12.5025 47.8045C9.70256 49.1063 7.31582 51.1245 5.89277 54.1286C4.62492 56.8051 4.5 59.5296 4.5 61.3893H19.5C19.5 61.0974 19.5066 60.8656 19.5175 60.6791C19.5285 60.4929 19.5426 60.3726 19.5531 60.3029C19.5743 60.1627 19.5714 60.2911 19.4487 60.5501C19.3868 60.6809 19.304 60.8242 19.1991 60.9678C19.0942 61.1113 18.9863 61.2288 18.8892 61.319C18.6948 61.4995 18.6164 61.5039 18.8265 61.4062L12.5025 47.8045ZM4.5 61.3893C4.5 66.4767 7.13173 71.1573 8.04936 73.043L21.5372 66.4797C19.9504 63.2187 19.5 62.1941 19.5 61.3893H4.5ZM8.04936 73.043C9.45726 75.9363 11.1133 79.0139 14.1898 81.9983L24.634 71.2318C23.4565 70.0895 22.7156 68.9012 21.5372 66.4797L8.04936 73.043ZM14.1898 81.9983C16.9698 84.6951 20.309 85.9889 22.5691 86.7739C25.37 87.7467 26.4832 87.9893 27.7368 88.6207L34.4845 75.2241C32.0509 73.9984 28.8497 73.0763 27.4906 72.6042C25.5906 71.9443 24.924 71.5131 24.634 71.2318L14.1898 81.9983ZM27.7368 88.6207C27.4128 88.4576 26.9788 88.0953 26.6827 87.5819C26.4463 87.172 26.4715 86.9627 26.5072 87.2738C26.5451 87.6045 26.5551 88.1145 26.5179 89.0252C26.4971 89.5327 26.4779 89.8522 26.4502 90.4671C26.4267 90.989 26.4039 91.5988 26.4039 92.2308H41.4039C41.4039 91.5054 41.453 90.9168 41.5053 89.6385C41.5489 88.5739 41.5861 87.1036 41.4094 85.5637C41.0269 82.2305 39.4783 77.7395 34.4845 75.2241L27.7368 88.6207ZM26.4039 92.2308C26.4039 92.3443 26.3937 92.5022 26.353 93.1325C26.321 93.6281 26.2704 94.4343 26.291 95.2992C26.3263 96.777 26.5707 100.239 29.3279 103.017L39.9734 92.4494C40.7157 93.1972 41.0448 93.9808 41.1804 94.442C41.3021 94.8563 41.2901 95.0815 41.2868 94.9415C41.2835 94.8049 41.2904 94.5866 41.3219 94.0979C41.3348 93.8979 41.3561 93.5859 41.3715 93.3042C41.3876 93.0095 41.4039 92.6347 41.4039 92.2308H26.4039ZM29.3279 103.017C31.2645 104.968 33.2613 106.336 34.9496 107.47L43.3124 95.0174C41.6815 93.9221 40.7751 93.257 39.9734 92.4494L29.3279 103.017ZM34.9496 107.47C36.6968 108.643 39.4328 110.573 43.9309 110.498L43.679 95.4999C43.6261 95.5008 43.7042 95.4955 43.8653 95.526C44.0351 95.5581 44.1851 95.6086 44.2847 95.651C44.3636 95.6846 44.3479 95.6869 44.177 95.5831C44.0923 95.5316 43.9837 95.4629 43.8359 95.3661C43.6857 95.2677 43.5211 95.1575 43.3124 95.0174L34.9496 107.47ZM43.9309 110.498C46.5274 110.454 49.5529 109.774 50.6679 109.581L48.1153 94.8003C45.6236 95.2306 44.7324 95.4822 43.679 95.4999L43.9309 110.498ZM50.6679 109.581C54.447 108.929 58.2011 107.667 61.2792 106.504L55.9784 92.4723C53.2032 93.5207 50.4931 94.3896 48.1153 94.8003L50.6679 109.581ZM61.2792 106.504C61.653 106.363 61.9676 106.216 62.2058 106.096C62.4447 105.976 62.6466 105.863 62.7899 105.78C62.9289 105.7 63.0566 105.622 63.1189 105.585C63.1575 105.562 63.1791 105.549 63.1992 105.537C63.2176 105.526 63.2239 105.522 63.2229 105.522C63.2218 105.523 63.2085 105.531 63.1862 105.543C63.1638 105.555 63.1282 105.575 63.0816 105.599C62.9929 105.644 62.8352 105.721 62.6232 105.804C62.2324 105.958 61.404 106.236 60.2882 106.236V91.2362C58.9025 91.2362 57.7987 91.5831 57.1301 91.8462C56.463 92.1087 55.9384 92.4069 55.6917 92.5501C55.5584 92.6275 55.4334 92.7031 55.3759 92.7378C55.2984 92.7845 55.2869 92.7911 55.2874 92.7908C55.2921 92.7881 55.3562 92.751 55.4583 92.6995C55.5599 92.6484 55.7388 92.5628 55.9784 92.4723L61.2792 106.504Z" fill="#8B5CF6"/>
<g clip-path="url(#clip0_894_2279)">
<path d="M144.092 67.216C141.759 57.0794 136.056 48.7105 126.587 44.9701C126.29 44.8505 126.086 44.5687 126.052 44.2442C125.509 37.7882 123.761 30.8625 119.45 25.7216C114.122 19.3851 106.816 16.6353 98.5506 17.8394C97.9312 17.9334 97.3202 17.6174 97.0232 17.0623C95.9965 15.1153 94.6473 13.3048 92.9672 11.6225C85.0333 3.68913 75.801 -0.179357 65.2536 -2.27513e-05C59.6107 0.0939141 54.1546 1.2297 48.8851 3.40732C35.0113 9.14601 26.2882 21.0418 23.9971 36.4987C23.9038 37.0879 23.4371 37.5491 22.8516 37.6259C4.50598 40.0854 -4.70077 59.1204 2.40158 75.5593C4.24293 79.8206 8.43476 85.3117 13.1103 86.5841C13.9758 86.8147 14.8159 87.0965 15.6305 87.4124C15.8935 87.5235 16.0802 87.7113 16.1735 87.9761C16.6572 89.3168 17.0984 90.6746 17.4888 92.0495C19.4659 99.0008 23.4116 105.354 28.6048 109.812C36.0381 116.191 47.0013 118.745 56.1487 114.842C57.8882 114.099 59.6023 113.254 61.2994 112.306C61.6642 112.101 62.1224 112.161 62.4194 112.451C69.6915 119.522 80.3832 122.22 89.7427 117.968C95.691 115.26 99.8489 110.939 103.583 105.636C103.854 105.252 104.338 105.064 104.804 105.167C118.347 108.164 132.891 104.611 140.325 91.7592C144.814 83.9966 146.069 75.8155 144.092 67.216ZM127.571 95.7472C126.476 96.5926 125.467 97.216 124.525 97.6174C124.185 97.7626 123.99 97.6516 123.948 97.2843L123.914 97.0111C123.854 96.5585 124.024 96.2084 124.406 95.9607C125.636 95.1665 126.807 94.4833 127.8 93.3048C129.701 91.0589 131.882 88.83 133.239 86.3621C135.14 82.8864 136.379 79.2485 136.947 75.4483C137.066 74.6541 136.863 74.5602 136.337 75.1665C135.632 75.9778 134.86 76.7634 134.41 77.8138C133.137 80.7771 131.585 83.5525 129.752 86.14C126.434 90.8112 122.845 94.8932 118.984 98.3774C118.466 98.83 117.83 99.1204 117.151 99.1973C116.71 99.2485 116.294 99.2314 115.895 99.146C115.649 99.0948 115.581 98.7788 115.776 98.6251C120.316 95.0896 124.287 89.9744 129.251 83.2451C131.636 80.0085 133.545 76.0461 135.726 72.374C136.43 71.1785 136.438 69.6584 135.751 67.8053C135.598 67.3954 135.412 67.3783 135.199 67.754C133.816 70.1025 132.017 71.9214 130.6 74.2784C129.93 75.3885 129.183 76.3621 128.343 77.199C125.458 80.1025 122.649 83.0657 119.926 86.0973C119.781 86.2596 119.679 86.456 119.629 86.6695C119.569 86.9342 119.467 87.1563 119.306 87.3527C117.287 89.795 115.42 92.1947 113.697 94.5602C113.154 95.3031 112.475 95.4568 111.652 95.0213C111.194 94.7737 111.245 94.099 111.729 93.9197C113.994 93.0828 115.505 91.4859 116.183 89.1631C116.438 88.2664 116.871 87.4637 117.49 86.7634C120.01 83.8855 122.734 80.76 125.662 77.4039C127.232 75.602 127.707 73.3048 129.472 71.7421C131.076 70.3159 134.673 67.1648 134.639 64.842C134.631 63.9966 134.342 63.2451 133.791 62.5875C133.613 62.3655 133.46 62.1264 133.333 61.8702L131.483 57.9077C131.288 57.4808 130.694 57.4466 130.448 57.8394C128.793 60.4526 127.851 63.2194 126.408 65.9351C125.187 68.2408 124.134 70.7002 123.252 73.3219C123.142 73.6379 123.473 73.9282 123.77 73.7831C124.389 73.4842 124.669 72.9803 124.61 72.2715C124.593 72.0324 124.627 71.8019 124.72 71.5798C125.543 69.573 126.731 67.3954 128.267 65.0299C128.504 64.6712 129.039 64.7054 129.226 65.0982L129.591 65.8753C129.845 66.4048 129.862 67.0196 129.633 67.5662L127.766 71.9983C127.656 72.263 127.486 72.485 127.257 72.6644C125.899 73.7318 125.594 75.3031 124.737 76.4475C122.997 78.7446 121.173 81.0589 119.281 83.3817C119.255 83.4244 118.441 84.4833 116.854 86.567C114.096 90.1964 110.515 93.0743 106.094 95.2092C105.653 95.4227 105.458 95.7557 105.5 96.2169C105.534 96.5499 105.721 96.7463 106.052 96.7976L107.605 97.0452C107.825 97.0794 108.046 97.1648 108.233 97.3014C108.869 97.754 109.548 97.9931 110.269 98.0188C110.719 98.0358 110.906 97.8223 110.829 97.3868L110.795 97.1648C110.77 96.9855 110.838 96.9171 111.016 96.9598C111.211 97.0111 111.355 97.1392 111.44 97.3527C111.533 97.5832 111.712 97.7199 111.958 97.7455C112.119 97.7711 112.272 97.7455 112.424 97.6772C112.56 97.6174 112.687 97.4893 112.815 97.2929C113.96 95.4995 115.581 94.4406 116.735 92.8095C117.371 91.9043 117.948 90.3245 119.264 90.2391C119.951 90.1964 120.392 89.4791 120.112 88.8471C119.603 87.7028 119.917 86.8915 121.063 86.4133C121.36 86.2852 121.606 86.0973 121.801 85.8497C124.016 83.0572 126.417 80.4611 129.005 78.0444C130.261 76.883 130.999 75.2861 132.348 74.0649C132.425 73.988 132.51 73.988 132.586 74.0649L132.764 74.2442C132.824 74.304 132.815 74.3467 132.756 74.3894C132.009 74.8932 131.559 75.6191 131.398 76.567C131.271 77.3441 130.855 78.1639 130.168 79.0094C127.512 82.263 124.754 85.3202 122.268 88.5995C121.665 89.4022 121.046 90.1622 120.409 90.8796C119.578 91.8275 118.449 93.3561 117.032 95.4483C116.09 96.8232 114.945 97.4466 113.986 98.719C113.816 98.9496 113.595 99.0862 113.315 99.146C109.998 99.8206 106.782 99.5303 103.667 98.292C103.404 98.1896 103.133 98.1639 102.853 98.2237C100.68 98.6849 99.1361 99.795 98.2112 101.554C96.1153 105.551 93.6291 108.839 89.5051 110.521C88.2238 111.042 86.9595 111.52 85.7036 111.947C82.3943 113.083 79.1274 113.108 75.8944 112.024C71.9486 110.709 69.2418 109.317 66.8828 105.534C66.3058 104.62 65.279 103.92 63.8111 103.433C63.531 103.339 63.2256 103.399 63.0049 103.578C61.8594 104.517 60.7987 105.423 59.4325 106.072C56.4372 107.498 53.4672 108.617 50.5228 109.436C49.8864 109.616 49.2754 109.522 48.6899 109.155C48.5117 109.044 48.325 109.035 48.1468 109.137C47.6801 109.411 47.0437 109.505 46.2461 109.419C44.4217 109.231 42.5719 109.035 40.6966 108.821C40.1281 108.762 40.0347 108.514 40.4166 108.079L42.0033 106.268C42.3173 105.909 42.6737 105.85 43.0725 106.089L43.4289 106.294C43.7004 106.456 43.972 106.447 44.235 106.277C46.6619 104.722 45.3297 102.22 48.1638 101.067C48.4523 100.956 48.5541 100.743 48.4778 100.436C48.4014 100.145 48.2402 99.9317 47.9856 99.795C47.7311 99.6669 47.485 99.6755 47.2474 99.8377C46.6789 100.222 46.0424 100.427 45.3381 100.453C45.0581 100.461 44.7951 100.555 44.566 100.717C43.6835 101.332 43.0131 102.118 42.5634 103.083C42.4446 103.339 42.2664 103.57 42.0373 103.74C40.9257 104.603 40.0687 105.645 39.4662 106.883C39.0843 107.652 38.5073 107.865 37.7351 107.515C33.3312 105.534 30.1916 102.605 28.3247 98.7276C27.4932 97.0025 26.7634 95.1836 26.127 93.2707C24.9051 89.6328 24.5996 85.4996 23.8614 81.5969C23.5898 80.1537 22.6395 79.5303 21.0103 79.7267C18.5664 80.0256 15.8511 80.3843 13.6873 78.83C10.955 76.8744 9.07966 74.9359 7.94261 71.7079C4.81146 62.7925 7.05163 51.4603 15.4013 46.251C20.009 43.3817 24.659 43.3732 29.7418 43.9453C30.7771 44.0563 31.6511 43.2024 31.5662 42.1605C30.7601 33.0657 32.5675 24.5602 39.0419 17.4551C43.7174 12.3228 49.4451 8.94959 56.2081 7.32705C68.2574 4.43209 80.502 6.81466 88.979 16.2767C90.6082 18.0956 91.4737 20.4099 91.5671 23.2109C91.6095 24.415 92.7381 25.269 93.8921 24.9786C96.5905 24.2955 99.5604 23.4842 102.259 23.5952C107.053 23.7916 111.041 25.5679 114.24 28.9325C118.356 33.2536 119.544 40.7088 120.138 46.3877C120.273 47.7284 121.037 48.6678 122.437 49.2058C128.352 51.4688 132.62 55.1836 135.242 60.3501C137.312 64.4321 138.382 69.0862 138.449 74.304C138.568 82.8864 134.945 90.0341 127.571 95.7472Z" fill="#FAFAFA"/>
<path d="M39.5251 25.047C39.1687 25.1409 39.0329 25.0043 39.1262 24.6456C39.5251 23.0999 40.2124 21.597 41.1713 20.1452C41.3325 19.8976 41.5531 19.778 41.8416 19.7695C42.3338 19.7524 42.6902 19.9488 42.9108 20.3587C44.0054 22.3911 41.2052 24.6029 39.5251 25.047Z" fill="#FAFAFA"/>
<path d="M102.521 26.7293C102.64 27.4467 101.291 28.275 99.509 28.5739C97.7271 28.8728 96.1827 28.5398 96.0639 27.8224C95.9451 27.1051 97.2943 26.2767 99.0763 25.9778C100.858 25.6789 102.403 26.012 102.521 26.7293Z" fill="#FAFAFA"/>
<path d="M37.6843 26.8573C37.8625 26.6524 38.1594 26.6097 38.3801 26.7549C39.1183 27.2502 39.7038 27.8821 40.1281 28.6507C40.6372 29.59 40.2384 30.7685 39.2626 31.1955C38.6771 31.4517 38.0661 31.4261 37.4127 31.1272C37.2091 31.0333 37.0563 30.8539 37.0054 30.6404C36.6236 29.1289 36.8527 27.8736 37.6843 26.8573Z" fill="#FAFAFA"/>
<path d="M36.0546 36.4901L36.0122 35.2519C35.9952 34.7053 36.4704 34.2613 37.0219 34.3296L38.2523 34.4748C38.8633 34.5516 39.2197 35.2092 38.9566 35.7643L38.2099 37.3441C37.9299 37.9163 37.1662 38.0358 36.7334 37.5576L36.2837 37.0708C36.1394 36.9086 36.0631 36.7036 36.0546 36.4901Z" fill="#FAFAFA"/>
<path d="M113.807 40.3928C113.883 40.5892 113.909 40.8027 113.9 41.0247C113.892 41.2297 113.807 41.409 113.646 41.5627C112.933 42.2545 112.093 42.3911 111.117 41.9726C110.854 41.8616 110.684 41.6567 110.608 41.3749C110.43 40.6661 110.489 40.0171 110.786 39.4449C111.117 38.7873 111.889 38.497 112.568 38.7617C113.349 39.0691 113.553 39.6669 113.807 40.3928Z" fill="#FAFAFA"/>
<path d="M89.1226 40.5039C90.93 41.2212 91.8719 42.7242 91.9568 45.0128C92.2877 54.2101 91.9144 63.322 90.8367 72.3314C90.7688 72.8694 90.5058 73.4245 90.056 74.0052C89.8778 74.2272 89.6487 74.3724 89.3772 74.4407C87.2813 74.9787 85.2363 74.8591 83.2422 74.0991C82.9791 73.9966 82.8009 73.8087 82.7076 73.544C82.3342 72.5022 82.1391 71.7421 82.1136 71.2554C81.7572 64.2101 81.5875 56.4219 81.596 47.8907C81.596 45.1239 81.9524 43.2537 82.6737 42.2801C84.3198 40.0342 86.4667 39.4449 89.1226 40.5039Z" fill="#FAFAFA"/>
<path d="M58.8042 53.6037C56.7677 54.1503 55.3166 57.0025 52.737 57.4893C49.0289 58.181 44.0734 55.6447 45.7959 50.9649C48.5113 43.6123 59.3982 41.4175 65.7368 44.2613C73.3144 47.6515 75.563 57.1733 69.988 63.5439C68.8764 64.8249 67.7224 66.0717 66.5429 67.2929C64.761 69.146 64.1925 70.9649 63.6409 73.3304C63.4542 74.1246 62.8093 74.7224 62.0117 74.842C59.8309 75.175 57.8453 74.7822 56.0379 73.6635C55.7239 73.4671 55.5203 73.1426 55.4948 72.7754C55.1554 68.6336 56.4452 65.2006 59.3557 62.4765C60.9086 61.0333 62.3172 59.462 63.5645 57.7625C64.184 56.9171 64.2009 56.0973 63.6154 55.2946C62.402 53.6208 60.7983 53.0572 58.8042 53.6037Z" fill="#FAFAFA"/>
<path d="M114.596 47.9334C113.807 47.4979 113.62 46.3279 114.172 45.3117C114.724 44.304 115.818 43.8343 116.599 44.2699C117.388 44.7054 117.575 45.8753 117.023 46.8916C116.472 47.8992 115.377 48.3689 114.596 47.9334Z" fill="#FAFAFA"/>
<path d="M22.1127 49.0008C21.4763 50.7173 20.4156 51.1186 18.9307 50.222C18.3112 49.8462 18.2179 48.9752 18.744 48.4713C19.3634 47.8821 20.0762 47.532 20.8739 47.4295C21.7394 47.3099 22.4182 48.1724 22.1127 49.0008Z" fill="#FAFAFA"/>
<path d="M124.194 57.2331L123.023 56.7976C122.692 56.6695 122.581 56.4389 122.692 56.0973L123.396 53.9197C123.506 53.5781 123.727 53.4842 124.041 53.6464C125.102 54.1588 125.959 54.9103 126.629 55.9009C126.799 56.1571 126.816 56.4218 126.671 56.6951C126.29 57.4039 126.06 58.1896 125.984 59.0435C125.959 59.257 125.755 59.3937 125.56 59.3339L125.297 59.257C124.974 59.1631 124.745 58.8727 124.728 58.5312L124.694 57.9163C124.686 57.5832 124.516 57.3527 124.194 57.2331Z" fill="#FAFAFA"/>
<path d="M125.509 60.6661C125.042 62.6302 124.16 63.6208 122.87 63.6464C122.607 63.6464 122.395 63.4244 122.42 63.1596L122.598 61.4517C122.624 61.1357 122.793 60.9991 123.107 61.0333C123.829 61.1101 124.457 60.8966 124.983 60.3757C125.5 59.8548 125.678 59.9573 125.509 60.6661Z" fill="#FAFAFA"/>
<path d="M117.974 70.4612C118.254 70.8113 117.982 71.4945 117.38 71.9983C116.769 72.4936 116.047 72.6132 115.759 72.263C115.479 71.9129 115.75 71.2297 116.353 70.7259C116.964 70.2306 117.685 70.111 117.974 70.4612Z" fill="#FAFAFA"/>
<path d="M15.4858 73.4501C15.6555 73.3562 15.8337 73.3135 16.0119 73.322C16.9877 73.3561 17.5054 74.5005 16.9283 75.3203C16.5295 75.8839 16.0968 76.4219 15.6216 76.9428C15.35 77.2332 14.8833 77.2246 14.6288 76.9257C14.1112 76.3194 13.7548 75.6448 13.5596 74.9104C13.4408 74.4663 13.7208 74.0222 14.1621 73.9369C14.6288 73.8515 15.07 73.6892 15.4858 73.4501Z" fill="#FAFAFA"/>
<path d="M96.0893 98.275C94.7317 99.8293 93.0855 101.102 91.1593 102.092C90.8877 102.229 90.6756 102.459 90.5398 102.733C89.9883 103.843 89.5301 104.979 88.656 105.892C87.7481 106.84 86.8656 107.805 86.0086 108.796C84.8715 110.12 83.6326 110.401 82.0289 110.512C81.8931 110.521 81.8252 110.461 81.8337 110.325V110.068C81.8337 109.915 81.9101 109.863 82.0543 109.906C82.9283 110.188 83.429 109.898 83.5648 109.052C83.6157 108.736 83.7854 108.506 84.0824 108.369C84.2945 108.275 84.5151 108.249 84.7612 108.309C85.0243 108.378 85.2703 108.335 85.4994 108.173C86.2886 107.6 86.8656 106.875 87.2475 105.986C87.3747 105.688 87.2729 105.525 86.959 105.5C86.5941 105.465 86.2801 105.611 86.0001 105.944C85.7455 106.26 85.4825 106.533 85.2194 106.781C84.0569 107.848 83.7684 107.652 84.3709 106.183C84.7273 105.32 85.7031 104.475 86.5941 103.954C89.4197 102.297 91.9739 100.29 94.2565 97.942C95.3681 96.7891 96.6409 95.7217 98.058 94.7567C100.12 93.3476 102.029 91.6738 103.786 89.7268C103.972 89.5304 104.006 89.2315 103.879 88.9838C103.565 88.369 103.226 87.72 102.869 87.0453C102.589 86.5159 102.7 86.0633 103.217 85.696C103.497 85.4911 103.777 85.4911 104.057 85.7046C104.719 86.2084 105.109 86.9087 105.237 87.8224C105.305 88.3177 105.89 88.5398 106.263 88.2067C107.01 87.5406 107.545 86.7208 107.867 85.7473C107.969 85.4484 107.969 85.1495 107.859 84.8506C107.171 82.9633 107.672 81.1956 109.369 79.5475C109.513 79.4108 109.734 79.4108 109.878 79.5475L110.082 79.7609C110.336 80.0257 110.353 80.2989 110.133 80.5978C109.14 81.9556 108.665 83.2366 108.699 84.4578C108.707 84.8592 109.165 85.0812 109.488 84.8506C110.167 84.3639 110.778 83.8088 111.321 83.1683C112.772 81.4603 114.41 80.5124 115.513 78.4458C115.699 78.1042 115.597 77.9334 115.207 77.942C114.944 77.942 114.69 78.0018 114.435 78.1042C114.257 78.1811 114.07 77.9932 114.146 77.8139L114.359 77.293C114.554 76.8233 114.834 76.7635 115.199 77.1136L115.462 77.3613C115.657 77.5492 115.852 77.5406 116.039 77.3442C116.522 76.8404 117.082 76.4902 117.71 76.2938C117.99 76.1999 118.169 76.3024 118.245 76.5927C118.415 77.3015 118.27 77.8993 117.821 78.3861C116.879 79.4023 115.962 80.4783 115.071 81.6311C112.78 84.5773 109.437 86.661 106.764 89.3083C104.151 91.9044 101.571 94.4919 99.0168 97.0624C98.1768 97.9078 97.43 99.0522 96.7682 100.495C95.1814 103.98 92.5763 106.832 88.9361 109.052C88.6221 109.24 88.5372 109.163 88.673 108.822C88.8258 108.437 89.0888 108.147 89.4707 107.968C89.7252 107.848 89.9374 107.677 90.1071 107.447C90.9896 106.268 91.906 105.115 92.8479 103.98C92.9073 103.911 93.3485 103.262 94.1716 102.024C94.9438 100.871 96.6494 99.9744 96.573 98.4373C96.5475 97.9761 96.3863 97.9164 96.0893 98.2665V98.275Z" fill="#FAFAFA"/>
<path d="M65.3554 82.673C65.2111 85.2093 62.8182 87.1392 60.0095 86.9855C57.2008 86.8318 55.0286 84.6456 55.1728 82.1008C55.3171 79.5645 57.71 77.6345 60.5187 77.7882C63.3274 77.942 65.4996 80.1281 65.3554 82.673Z" fill="#FAFAFA"/>
<path d="M91.2191 83.0658C91.2191 85.6277 89.1572 87.7028 86.6115 87.7028C84.0659 87.7028 82.0039 85.6277 82.0039 83.0658C82.0039 80.5039 84.0659 78.4287 86.6115 78.4287C89.1572 78.4287 91.2191 80.5039 91.2191 83.0658Z" fill="#FAFAFA"/>
<path d="M112.908 79.1204C113.307 78.8216 113.392 78.8984 113.154 79.3339C112.942 79.7353 112.628 80.1196 112.221 80.4868C111.814 80.8455 111.729 80.7771 111.958 80.2818C112.17 79.8292 112.484 79.4364 112.908 79.1204Z" fill="#FAFAFA"/>
<path d="M33.3562 82.3655C33.3562 83.4245 32.5076 84.2784 31.4554 84.2784C30.4032 84.2784 29.5547 83.4245 29.5547 82.3655C29.5547 81.3066 30.4032 80.4526 31.4554 80.4526C32.5076 80.4526 33.3562 81.3066 33.3562 82.3655Z" fill="#FAFAFA"/>
<path d="M92.8995 90.9565C93.0607 91.281 93.1455 91.6397 93.1455 92.024C93.1455 92.3485 93.0183 92.6559 92.7976 92.895C89.9211 95.9608 86.8239 98.8472 83.506 101.571C83.2769 101.751 83.2175 101.708 83.3109 101.435L84.1849 98.9753C84.2867 98.6935 84.4649 98.4714 84.7279 98.3177C86.8748 97.0026 88.9367 95.2434 90.9139 93.0402C91.3806 92.5193 91.389 91.9983 90.9223 91.4774C90.7187 91.2468 90.5575 90.9906 90.4387 90.6918C90.3538 90.4697 90.4981 90.2221 90.7357 90.2135L91.6945 90.1623C91.9661 90.1452 92.2121 90.0171 92.3819 89.8122C93.6377 88.275 94.5881 86.6269 95.2415 84.8591C95.3942 84.4407 95.9542 84.3553 96.2173 84.7225C97.5919 86.6098 94.2317 89.0265 93.0607 90.0684C92.7807 90.3246 92.7298 90.6234 92.8995 90.9565Z" fill="#FAFAFA"/>
<path d="M33.679 86.3536C33.8148 86.2853 33.959 86.2511 34.1118 86.2511C35.3507 86.2596 35.6816 86.9855 35.1131 88.4116C34.9943 88.7105 34.7821 88.9667 34.5106 89.1461C33.4075 89.8719 32.4316 90.7344 31.5916 91.7507C30.9721 92.5107 29.8011 92.4595 29.2411 91.6567C28.5538 90.6661 28.5453 89.2912 29.623 88.6337C31.0061 87.7797 32.3553 87.0197 33.679 86.3536Z" fill="#FAFAFA"/>
<path d="M39.6785 92.5021C38.6772 93.1853 38.0408 93.5696 37.4723 94.7396C37.3535 94.9957 37.1583 95.1665 36.8868 95.2519C34.706 95.9351 33.5011 97.6687 31.4051 98.1981C30.8196 98.3433 30.2766 97.8309 30.3954 97.2331C30.5481 96.4646 30.93 95.8497 31.5409 95.3886C33.1786 94.1588 34.8757 92.9377 36.6492 91.725C37.6929 91.0162 38.6942 90.965 39.67 91.5884C40.0009 91.8019 40.0009 92.2801 39.6785 92.5021Z" fill="#FAFAFA"/>
<path d="M41.0869 99.3595L41.8846 98.8215C42.1306 98.6593 42.3767 98.6593 42.6228 98.8215C42.8264 98.9582 42.9452 99.1631 42.9877 99.4449C43.0301 99.6926 42.9707 99.9317 42.8264 100.145C41.8252 101.64 40.7051 103.074 39.4747 104.458C38.6176 105.431 37.6673 105.525 36.632 104.731L33.7215 102.502C33.2888 102.178 33.17 101.563 33.4585 101.093C34.2985 99.7182 35.5035 98.7959 37.0648 98.3092C37.2854 98.2408 37.4636 98.1127 37.5994 97.9249C37.7776 97.6687 37.82 97.3869 37.7267 97.088C37.6248 96.7293 37.9812 96.4219 38.3207 96.5671L38.5837 96.6866C38.8637 96.8147 39.1353 96.7891 39.3898 96.6268C39.8056 96.3536 40.2469 96.2767 40.6966 96.3963C40.9851 96.4731 41.2142 96.7037 41.2906 97.0026C41.4857 97.7797 41.3585 98.5056 40.9087 99.1802C40.6626 99.5389 40.722 99.5986 41.0869 99.3595Z" fill="#FAFAFA"/>
<path d="M61.1719 100.239C61.2398 99.8804 61.452 99.6413 61.8168 99.5303C62.3005 99.3851 62.4023 99.5303 62.1393 99.9487C61.5538 100.88 60.9343 101.699 60.281 102.425C59.9331 102.801 59.8058 102.741 59.8906 102.237C59.984 101.631 60.3064 101.136 60.8495 100.751C61.0192 100.632 61.138 100.444 61.1719 100.239Z" fill="#FAFAFA"/>
<path d="M46.6446 108.087C46.3222 108.446 45.7706 108.48 45.4142 108.155L45.3124 108.062C44.9475 107.737 44.9221 107.182 45.2445 106.823L51.4983 99.8036C51.8208 99.445 52.3723 99.4108 52.7287 99.7353L52.8305 99.8292C53.1954 100.154 53.2209 100.709 52.8984 101.068L46.6446 108.087Z" fill="#FAFAFA"/>
<path d="M68.4439 102.331C67.9433 101.597 67.3662 101.409 66.7044 101.776C66.3056 101.99 65.9831 101.913 65.7285 101.546L65.491 101.187C65.2618 100.854 65.3297 100.606 65.6946 100.444L66.8486 99.9231C67.1626 99.7865 67.4511 99.8206 67.7226 100.017C68.707 100.726 69.3603 101.776 69.6828 103.168C69.7337 103.407 69.8779 103.604 70.0816 103.732C70.1749 103.792 70.2768 103.817 70.3871 103.817C70.5483 103.817 70.5738 103.877 70.455 103.988C69.8016 104.611 69.2246 105.303 68.7324 106.063C68.673 106.157 68.5966 106.174 68.5118 106.097L68.3336 105.952C68.3336 105.952 68.3081 105.892 68.3336 105.875C69.4622 105.081 69.4961 103.903 68.4439 102.331Z" fill="#FAFAFA"/>
<path d="M53.3996 106.405C51.991 107.301 50.4891 107.985 48.8853 108.446C48.8853 108.446 48.8797 108.446 48.8684 108.446L48.7835 108.19C48.7326 108.053 48.775 107.959 48.9108 107.908C50.7691 107.173 52.0419 105.995 52.7462 104.381C53.476 102.69 55.5634 101.136 57.3793 102.024C57.5999 102.135 57.8375 102.195 58.0751 102.22C58.7879 102.289 58.9831 102.596 58.6606 103.151C58.5418 103.348 58.3891 103.518 58.2024 103.646C57.269 104.295 56.395 105.021 55.5719 105.816C55.1307 106.242 54.7234 106.388 54.1548 106.268C53.8833 106.208 53.6287 106.26 53.3996 106.405Z" fill="#FAFAFA"/>
<path d="M72.2626 108.002C74.4689 107.242 77.9649 106.413 77.914 103.587C77.9055 102.955 78.177 102.775 78.7456 103.04L79.925 103.587C80.4087 103.8 80.6039 104.176 80.5275 104.697C80.4596 105.115 80.2814 105.585 80.0014 106.089C79.8572 106.345 79.645 106.473 79.348 106.473C77.1588 106.473 76.3866 107.754 75.0968 109.163C74.5877 109.718 73.807 109.932 73.0942 109.71C72.2881 109.453 71.5668 109.095 70.9304 108.625C70.311 108.164 70.2431 107.634 70.7353 107.045C71.9741 105.534 73.5949 104.21 75.589 103.057C75.835 102.912 75.9623 102.98 75.9538 103.271L75.9284 104.475C75.9284 104.765 75.7926 104.962 75.5126 105.064C74.0446 105.585 72.8821 106.447 72.0081 107.652C71.7281 108.036 71.8129 108.155 72.2626 108.002Z" fill="#FAFAFA"/>
</g>
<defs>
<clipPath id="clip0_894_2279">
<rect width="145" height="120" fill="white"/>
</clipPath>
</defs>
</svg>
