<svg width="120" height="140" viewBox="0 0 120 140" fill="none" xmlns="http://www.w3.org/2000/svg">
<g clip-path="url(#clip0_331_1956)">
<path opacity="0.55" d="M37.3847 47.3273L22.5857 49.775L22.6441 50.1277C22.7066 50.5057 22.8362 50.872 23.083 51.165C23.9028 52.138 26.2486 54.2371 30.8011 53.4841C32.1509 53.2609 34.0209 53.5439 35.5925 53.8959C36.9748 54.2057 38.3289 53.036 38.0977 51.6381L37.3847 47.3273ZM29.7683 47.8618L22.4294 49.4079L29.7683 47.8618ZM29.44 45.2269L21.9721 45.9195L29.44 45.2269ZM28.7017 39.6748L36.1789 39.09L28.7017 39.6748ZM28.8517 32.1299L36.3209 32.808L28.8517 32.1299ZM28.9636 18.8701L36.4611 18.6761L28.9636 18.8701ZM28.8974 14.2022L21.4022 13.9329L28.8974 14.2022ZM29.0242 9.68335L36.5209 9.90468L29.0242 9.68335ZM21.3857 6.38316L36.3667 5.62912L36.3487 5.27207C36.3295 4.88942 36.2422 4.51083 36.0303 4.19171C35.3261 3.13202 33.2334 0.780496 28.6248 1.01246C27.2584 1.08123 25.4326 0.588016 23.911 0.0600899C22.5728 -0.404478 21.0948 0.604222 21.166 2.0193L21.3857 6.38316ZM37.3847 47.3273C37.2975 46.7999 37.1747 46.373 37.0867 46.0974C37.0021 45.8326 36.9173 45.6106 36.8954 45.5528C36.8526 45.4394 36.8848 45.5226 36.9144 45.6094C36.9512 45.717 37.0347 45.9713 37.1073 46.3158L22.4294 49.4079C22.5264 49.8681 22.6444 50.2376 22.7204 50.4601C22.7598 50.5753 22.7952 50.672 22.8189 50.7357C22.8393 50.7906 22.8639 50.8553 22.8661 50.861C22.8743 50.8826 22.8681 50.8666 22.8578 50.8382C22.8468 50.8076 22.8245 50.7446 22.7975 50.6602C22.7461 50.4993 22.6539 50.1872 22.5857 49.775L37.3847 47.3273ZM37.1073 46.3158C37.0362 45.9786 37.0117 45.6527 36.908 44.5343L21.9721 45.9195C22.0315 46.5604 22.1327 47.9996 22.4294 49.4079L37.1073 46.3158ZM36.908 44.5343C36.7956 43.3228 36.6047 42.1463 36.4702 41.2892C36.3218 40.3425 36.2258 39.6893 36.1789 39.09L21.2246 40.2596C21.3229 41.5174 21.51 42.7122 21.6514 43.6134C21.8068 44.604 21.9123 45.2751 21.9721 45.9195L36.908 44.5343ZM36.1789 39.09C36.0297 37.182 36.1094 35.1377 36.3209 32.808L21.3824 31.4518C21.1358 34.1675 20.9816 37.1536 21.2246 40.2596L36.1789 39.09ZM36.3209 32.808C36.7726 27.8336 36.5707 22.9128 36.4611 18.6761L21.4661 19.064C21.5851 23.6621 21.7363 27.5534 21.3824 31.4518L36.3209 32.808ZM36.4611 18.6761C36.4139 16.8502 36.3475 15.7243 36.3925 14.4715L21.4022 13.9329C21.335 15.802 21.4328 17.7765 21.4661 19.064L36.4611 18.6761ZM36.3925 14.4715C36.447 12.9555 36.4803 11.2807 36.5209 9.90468L21.5274 9.46202C21.4791 11.0985 21.456 12.4359 21.4022 13.9329L36.3925 14.4715ZM36.5209 9.90468C36.5421 9.18579 36.6016 7.88342 36.5374 6.60704L21.5563 7.36108C21.5822 7.8748 21.5593 8.3815 21.5274 9.46202L36.5209 9.90468ZM36.5374 6.60704C36.5103 6.06851 36.4378 5.62401 36.3825 5.33484C36.3308 5.06367 36.2715 4.81899 36.2598 4.76993C36.2348 4.66423 36.2555 4.74618 36.2768 4.85871C36.3014 4.98835 36.3483 5.26371 36.3667 5.62912L21.3857 6.38316C21.4124 6.9139 21.4828 7.35386 21.5383 7.64747C21.5907 7.92399 21.65 8.16928 21.6635 8.22642C21.6905 8.34018 21.6697 8.25783 21.6488 8.14859C21.6245 8.02134 21.5753 7.73837 21.5563 7.36108L36.5374 6.60704Z" fill="#8B5CF6"/>
<path d="M119.398 51.1824C117.136 44.9934 114.473 38.359 111.4 31.2552C110.357 28.8448 108.569 27.6595 106.042 27.6834C103.378 27.7152 100.787 27.7152 98.2684 27.6834C97.8754 27.6834 97.5545 27.3652 97.5545 26.9754C97.5545 20.317 97.5545 13.6269 97.5545 6.90491C97.5545 4.1684 96.7282 0.692062 93.5034 0.365907C87.5271 -0.246628 80.3956 0.111347 74.0262 0.103392C58.1588 0.103392 41.9786 0.119302 25.4935 0.143167C23.0067 0.143167 21.5066 1.29664 20.9932 3.57973C20.6402 5.14686 20.4718 6.71399 20.4959 8.28908C20.5921 14.9474 20.6082 21.2557 20.544 27.214C20.544 27.4686 20.3274 27.6754 20.0627 27.6754C18.2256 27.6277 16.3726 27.6118 14.5195 27.6277C12.0728 27.6436 10.3481 28.6936 9.34537 30.754C7.90945 33.7212 5.19002 39.95 1.1951 49.4403C0.248509 51.6915 -0.200719 54.4997 0.0720266 56.8225C0.497189 60.5057 0.866197 63.9263 1.16301 67.0845C1.7085 72.8121 2.12564 77.6407 2.42245 81.5705C2.60696 84.0684 3.00003 86.5901 3.05618 89.0562C3.12838 92.5723 3.64981 95.7702 3.71398 99.159C3.74607 100.527 3.83431 101.824 3.99475 103.057C4.41189 106.326 4.25145 109.66 4.62046 112.85C4.77288 114.178 4.87716 115.753 4.92529 117.551C4.9654 119.015 5.06167 120.566 5.23013 122.189C5.64727 126.254 5.99221 130.287 6.27298 134.288C6.48155 137.232 7.41209 140.024 10.9016 140.008C44.0563 139.944 76.4007 139.928 107.927 139.968C111.087 139.968 112.973 138.258 113.382 135.187C113.879 131.488 113.679 127.702 114.064 124.177C114.232 122.642 114.336 121.123 114.393 119.611C114.505 116.588 114.834 113.43 115.026 110.368C115.909 96.1123 117.537 78.2612 119.888 56.8066C120.128 54.619 119.968 52.7416 119.398 51.1904V51.1824ZM97.5304 31.9075C97.5465 31.5734 97.8192 31.3188 98.1561 31.3108L106.09 31.2711C106.788 31.2711 107.429 31.6768 107.702 32.3132C110.438 38.6533 113.342 44.8343 115.516 51.3813C115.724 52.0018 115.5 52.2802 114.842 52.2166H114.681C114.007 52.137 113.43 51.7154 113.173 51.1029L106.01 34.1428C105.753 33.5303 105.159 33.1325 104.485 33.1246L98.1642 33.0609C97.6989 33.0609 97.4823 32.8223 97.5064 32.3609L97.5384 31.9075H97.5304ZM24.6592 9.23573C24.6673 7.80383 24.7154 6.26851 24.7796 4.62183C24.7956 4.36727 24.9962 4.15249 25.2529 4.14453H25.5096C25.7422 4.12862 25.8625 4.23204 25.8625 4.47069L25.9026 11.7893C25.9026 12.1154 26.2155 12.3541 26.5364 12.2745C26.6086 12.2586 26.6808 12.2348 26.753 12.2189C27.2503 12.0836 27.515 11.7575 27.5231 11.2324L27.6995 4.24795C27.6995 3.97748 27.852 3.84224 28.1247 3.8502H28.5017C28.7905 3.86611 29.0232 4.11271 28.9991 4.39909C28.8547 6.56285 28.7905 9.28346 29.5526 11.312C29.6168 11.487 29.7451 11.5825 29.9457 11.6063C30.1783 11.6302 30.3869 11.5665 30.5634 11.4074C30.6997 11.2881 30.7719 11.137 30.7719 10.962V4.61387C30.7719 4.21613 31.1008 3.88997 31.5019 3.88997C50.4337 3.87406 69.3253 3.87406 88.1528 3.88997C91.3856 3.88997 93.8403 4.39909 93.6398 8.1618C93.6237 8.45614 93.2708 8.59137 93.0622 8.3925C91.8348 7.26289 90.6717 6.30829 89.5727 5.5287C88.602 4.82866 88.3373 5.04344 88.7865 6.14123C89.332 7.49358 90.1984 8.36068 91.3696 8.73456C93.0301 9.2755 94.0168 11.0256 93.8724 12.6882C93.8484 12.9587 93.5195 13.0859 93.3109 12.903L90.6957 10.5006C90.2545 10.0869 89.9336 10.1665 89.7251 10.7313L89.6529 10.9381C89.4684 11.4472 89.6689 12.0041 90.1262 12.2904C91.6343 13.2132 94.1211 14.669 93.4232 16.7293C93.359 16.9123 93.351 17.0953 93.3911 17.2862C93.6157 18.2567 93.6879 19.2431 93.5997 20.2295C93.5836 20.5 93.4392 20.6193 93.1665 20.6034C92.629 20.5636 92.1397 20.3648 91.6824 20.0147C91.4899 19.8556 91.2011 19.9511 91.1209 20.1818L91.0407 20.4205C90.9284 20.7625 91.0567 21.1444 91.3616 21.3432L93.0943 22.5206C93.351 22.6956 93.5195 22.9581 93.5676 23.2524C93.6799 23.9127 93.6478 24.5491 93.4793 25.1537C93.343 25.6708 93.0782 25.7344 92.6852 25.3764L90.4631 23.2843C90.2385 23.0774 89.8775 23.1808 89.8053 23.4752C89.7411 23.7536 89.7893 24.032 89.9818 24.3264C90.7439 25.5276 91.6824 26.5617 92.8055 27.4447C92.9659 27.572 93.0782 27.7311 93.1344 27.922C93.2387 28.2482 93.2948 28.5902 93.3109 28.9323C93.5917 36.2032 93.5836 43.4343 93.2868 50.6256C93.2788 50.8722 93.0622 51.0551 92.8215 51.0313L90.8 50.8085C90.5513 50.7767 90.3428 50.6813 90.1663 50.5142L88.5138 48.9312C88.2651 48.6925 88.1849 48.7402 88.2892 49.0664C88.5378 49.846 88.5539 50.4426 88.3533 50.8563C88.2009 51.1904 87.7437 51.254 87.495 50.9915L85.8024 49.1698C85.6499 49.0028 85.3932 48.9471 85.1847 49.0425C84.583 49.313 83.9653 49.2732 83.3236 48.9312C82.8824 48.6925 82.7701 48.8039 82.9867 49.2494C83.2995 49.9017 83.9413 50.4585 84.9199 50.904C84.9761 50.9279 85.0002 50.9676 84.9841 51.0313L84.928 51.2222C84.8558 51.4608 84.7034 51.5563 84.4547 51.5165C83.9413 51.4211 83.4359 51.2779 82.9225 51.0949C81.2058 50.4665 80.171 47.8254 78.3179 48.0641C78.0933 48.0959 77.9329 48.3027 77.9649 48.5334C78.0772 49.2653 78.711 50.1165 79.8501 51.0711C80.3154 51.4688 80.2432 51.6518 79.6335 51.6359L78.6869 51.612C78.1655 51.5961 77.6922 51.3733 77.3392 50.9995C76.537 50.1324 75.7028 49.2971 74.8444 48.5016C74.4674 48.1516 73.9941 47.9925 73.4165 48.0402C73.3283 48.0402 73.24 48.072 73.1518 48.1198C72.7828 48.3425 72.7507 48.605 73.0395 48.9232C73.97 49.9414 74.5957 50.8244 74.9006 51.5802C75.1011 52.0813 74.9567 52.2166 74.4594 51.9938C72.6464 51.1745 71.0581 49.9017 69.6863 48.1754C69.566 48.0243 69.3574 47.9447 69.1649 47.9845L68.86 48.0482C68.7076 48.08 68.6515 48.2709 68.7558 48.3743L70.9939 50.6256C71.1864 50.8165 71.1543 50.9517 70.8976 51.0392L70.7131 51.0949C70.5687 51.1347 70.4163 51.1108 70.304 51.0154C69.7104 50.5222 69.1087 50.1085 68.5151 49.7823C68.1942 49.6073 68.1381 49.671 68.3306 49.9733L69.0927 51.1824C69.197 51.3495 69.0365 51.5563 68.844 51.4927L68.2825 51.2938C68.0659 51.2222 67.8894 51.0631 67.7931 50.8563C67.2075 49.6471 66.3331 48.7721 65.1539 48.2391C64.9052 48.1277 64.7849 48.1993 64.809 48.4777C64.9133 49.5357 65.3465 50.4267 66.1085 51.1586C66.3813 51.4131 66.3331 51.5404 65.9481 51.5245C63.9988 51.437 61.9612 51.1427 60.9986 49.2653C60.8863 49.0346 60.7098 48.8437 60.4852 48.7164C60.1563 48.5175 59.8354 48.4936 59.5305 48.6209C58.7685 48.955 58.7524 49.305 59.4985 49.6789C60.1081 49.9812 60.4852 50.4347 60.6215 51.0313C60.7098 51.4131 60.5654 51.5722 60.1803 51.5006C60.1001 51.4847 60.0199 51.4768 59.9397 51.4688C59.5707 51.437 59.2658 51.1745 59.1856 50.8245C58.9369 49.7187 58.1187 49.0107 56.7229 48.6925C56.5063 48.6368 56.3298 48.7005 56.1934 48.8834C56.0891 49.0187 56.0651 49.1857 56.1212 49.3846C56.1613 49.5198 56.2656 49.663 56.4261 49.8142C56.9314 50.2756 57.3085 50.6972 57.5652 51.079C57.9021 51.5881 57.7738 51.7552 57.1962 51.5802C55.8084 51.1824 54.6051 50.5301 53.5943 49.6312C53.3537 49.4244 53.0569 49.2812 52.744 49.2335C52.4392 49.1937 52.1504 49.2016 51.8616 49.2573C51.7493 49.2732 51.7252 49.4164 51.8135 49.4801C52.3028 49.8221 52.7039 50.2517 53.0087 50.7688C53.1451 50.9995 53.0809 51.1108 52.8082 51.0949C52.0461 51.0472 51.4846 50.7926 51.1316 50.3233C51.0032 50.1562 50.8348 50.1085 50.6423 50.1881C50.5781 50.2199 50.5059 50.2278 50.4337 50.2358C50.2813 50.2517 50.1529 50.196 50.0647 50.0767C49.5994 49.4721 49.1903 49.0505 48.8373 48.7959C48.5405 48.5891 48.2678 48.5652 48.003 48.7402C47.7303 48.9153 47.7062 49.13 47.9389 49.3607L49.6235 51.079C49.7278 51.1904 49.7197 51.3495 49.6074 51.4529L49.4309 51.604C49.2545 51.7552 49.0619 51.7631 48.8694 51.6279L45.051 48.963C44.9146 48.8675 44.7221 48.8755 44.5937 48.9789L44.321 49.2096C44.2408 49.2732 44.2488 49.3369 44.321 49.3846L45.7007 50.3233C46.0056 50.5301 45.8933 50.9995 45.5243 51.0551C44.9868 51.1347 44.4172 51.0949 43.8076 50.9438C43.607 50.896 43.5108 50.7688 43.5428 50.5619C43.591 50.2358 43.7033 49.9255 43.8878 49.6551C44.0001 49.488 43.968 49.3528 43.7915 49.2494C42.9653 48.7641 42.1551 48.5493 41.3609 48.5971C40.8956 48.6209 40.7031 49.2096 41.056 49.5039L42.516 50.7369C42.6685 50.8642 42.6283 51.1029 42.4358 51.1665C41.2085 51.604 40.4704 51.4211 39.5158 50.4665C38.834 49.7903 38.1601 49.1778 37.4702 48.6289C37.2938 48.4857 37.029 48.5016 36.8686 48.6686C36.644 48.8993 36.6199 49.13 36.7964 49.3528C37.2617 49.9335 37.743 50.5381 38.2564 51.1586C38.3928 51.3177 38.2564 51.5484 38.0478 51.5324C37.1413 51.4529 36.3873 50.9676 35.7856 50.0846C35.5771 49.7823 35.3204 49.7028 34.9915 49.8539C34.7829 49.9494 34.7107 50.1005 34.7508 50.3233L34.815 50.6415C34.8711 50.8881 34.7749 51.0154 34.5102 51.0154C34.1412 51.0154 33.9406 50.8085 33.8844 50.4028C33.8203 49.8937 33.7401 49.4005 33.6518 48.9153C33.6117 48.7164 33.4914 48.613 33.2828 48.613H31.0527C30.8682 48.613 30.7479 48.7959 30.8201 48.963C31.0768 49.5676 31.51 50.1403 32.0956 50.6813C32.8175 51.3495 32.6892 51.612 31.7105 51.4609C31.2452 51.3893 30.8361 51.1983 30.4912 50.8881C30.3307 50.7369 30.2184 50.5619 30.1543 50.3472C30.0259 49.8778 29.8013 49.4403 29.4644 49.0505C29.3119 48.8755 29.1916 48.8914 29.1114 49.1141C28.967 49.4721 28.9109 49.8699 28.951 50.3074C28.9991 50.8483 28.4295 51.2302 27.9402 50.9835C27.0417 50.5222 26.1674 50.3233 25.3251 50.3631C25.0603 50.379 24.8357 50.1801 24.8116 49.9176C24.6592 47.9766 24.587 46.2424 24.571 44.7309C24.4908 34.6519 24.5148 22.8308 24.6432 9.25164L24.6592 9.23573ZM86.404 51.5802C86.2516 51.612 86.0671 51.612 85.8585 51.5802C85.6499 51.5484 85.5296 51.429 85.4735 51.2302C85.4333 51.0551 85.4333 50.8881 85.4735 50.6972C85.5136 50.4585 85.6259 50.4267 85.8184 50.5858L86.5243 51.2063C86.7409 51.4052 86.7088 51.5324 86.412 51.5802H86.404ZM89.2759 54.5394C96.5517 54.5235 103.707 54.3326 110.751 53.9905C112.186 53.9189 112.235 54.1656 110.919 54.7224C109.94 55.144 108.873 55.5497 107.726 55.9475C106.884 56.2418 105.841 56.385 104.598 56.385C74.6519 56.3691 45.075 56.3691 15.8431 56.3691C13.6371 56.3691 11.4231 55.8997 9.209 54.961C8.93626 54.8497 8.73571 54.6826 8.59933 54.4678C8.46296 54.2451 8.63944 53.9587 8.90417 53.9746C10.1877 54.078 11.4311 54.3803 12.6504 54.3962C38.1842 54.7304 63.7421 54.5951 89.2839 54.5394H89.2759ZM4.51617 51.1983L12.7386 32.2257C12.9713 31.7006 13.4847 31.3586 14.0542 31.3586L19.8381 31.2949C20.3113 31.2949 20.544 31.5256 20.536 32.0029V32.512C20.5279 32.8382 20.2552 33.1007 19.9263 33.1007L15.6265 33.1166C15.3217 33.1166 15.065 33.228 14.8564 33.4666C14.3831 33.9996 14.0141 34.5803 13.7655 35.2327C11.8963 40.1329 9.56999 45.3594 6.7944 50.9358C6.44946 51.6279 5.93606 52.0654 5.25419 52.2404C5.19002 52.2563 5.11782 52.2643 5.0376 52.2404C4.42793 52.1211 4.25145 51.779 4.49211 51.2142L4.51617 51.1983ZM10.8134 125.084C10.7572 125.426 10.5647 125.673 10.2519 125.832C10.0834 125.912 9.91493 125.888 9.74647 125.753C9.2812 125.363 9.06461 124.878 9.09669 124.281C9.22505 121.648 9.15285 119.404 8.88812 117.551C8.58329 115.363 8.45494 113.263 8.51109 111.243C8.60736 107.87 7.92549 104.552 7.92549 101.172C7.92549 98.0453 7.7811 94.9269 7.47626 91.8166C7.20352 89.0323 7.50835 86.3833 7.16341 83.7025C6.65803 79.725 6.81847 76.0657 6.33715 72.12C6.12056 70.354 6.04836 68.5084 6.11254 66.5753C6.12858 66.2731 6.281 66.106 6.57781 66.0583C7.72494 65.8753 8.39879 66.3685 8.59131 67.5459C8.80791 68.9141 8.93626 70.1949 8.98439 71.3881C9.10472 74.4906 9.23307 77.4816 9.52988 80.6C9.81065 83.4718 9.63416 86.5185 9.8668 89.2789C10.1716 92.7711 10.316 96.4543 10.3 100.328C10.2759 105.443 10.9818 110.67 10.9257 115.96C10.9257 115.976 10.9818 117.527 11.0942 120.598C11.1583 122.213 11.0621 123.708 10.8134 125.1V125.084ZM14.4955 114.114L15.8752 114.695C15.9314 114.719 15.9875 114.751 16.0196 114.806L18.0492 117.583C18.2577 117.861 17.9529 118.235 17.632 118.1L17.0224 117.837C16.9822 117.821 16.9421 117.79 16.9101 117.758L14.1104 114.663C13.8617 114.393 14.1585 113.987 14.4955 114.122V114.114ZM15.4661 120.287C15.4501 120.2 15.426 120.128 15.3779 120.057C15.2174 119.81 15.2736 119.691 15.5704 119.691C15.6506 119.691 15.7308 119.699 15.803 119.739C15.8672 119.77 15.9234 119.818 15.9635 119.882C16.2924 120.367 16.172 120.797 15.6265 121.17C15.2335 121.433 15.1372 121.353 15.3378 120.932L15.4661 120.653C15.4661 120.653 15.4821 120.502 15.4661 120.287ZM17.3111 125.697C15.8913 127.622 14.5035 129.014 14.2227 128.807C13.9339 128.6 14.8484 126.866 16.2763 124.941C17.6962 123.016 19.084 121.624 19.3648 121.831C19.6535 122.038 18.739 123.772 17.3111 125.697ZM20.7365 114.981L20.7124 115.005C20.4959 115.212 20.1509 115.196 19.9504 114.981L16.3806 111.219C16.172 111.004 16.1881 110.67 16.4047 110.463L16.4287 110.439C16.6453 110.232 16.9903 110.248 17.1908 110.463L20.7606 114.226C20.9691 114.449 20.9531 114.783 20.7365 114.981ZM22.9185 111.585L22.8944 111.609C22.6858 111.8 22.373 111.784 22.1805 111.577L17.8406 106.875C17.6561 106.669 17.6641 106.358 17.8727 106.167L17.8967 106.143C18.1053 105.961 18.4182 105.968 18.6107 106.175L22.9506 110.877C23.1351 111.084 23.127 111.394 22.9185 111.585ZM72.5902 95.2849C69.4456 97.7907 66.1567 99.6522 62.7233 100.861C61.0788 101.442 59.5065 101.347 57.9823 100.559C55.0062 99.0397 52.0541 97.1703 49.1502 94.9588C48.6287 94.561 48.1956 94.0917 47.8747 93.5428C47.7223 93.2882 47.9549 92.978 48.2517 93.0416C49.2705 93.2644 50.2732 93.7019 51.2439 94.3462C53.5382 95.8577 55.6158 97.035 57.4769 97.8703C59.5466 98.801 61.5521 98.6976 63.7661 97.8464C66.1807 96.9237 68.5552 95.802 70.8976 94.4974C71.3228 94.2587 71.788 94.211 72.2774 94.3462C72.4057 94.386 72.51 94.4417 72.6063 94.5292C72.8309 94.736 72.8149 95.0861 72.5822 95.277L72.5902 95.2849ZM115.492 58.326C113.486 59.8931 110.887 61.7546 107.686 63.8866C97.2577 70.8472 86.8372 77.7998 76.4087 84.7525C73.5368 86.6697 69.9751 88.9925 65.7155 91.745C62.7072 93.686 59.683 94.5451 56.3699 92.5325C46.0296 86.2401 34.7669 78.9692 22.6056 70.696C18.2818 67.7527 13.8296 64.7616 9.24911 61.7308C7.60462 60.6409 6.04836 59.5511 4.58035 58.4692C4.13914 58.143 3.89046 57.7453 3.83431 57.276C3.77014 56.7827 4.29958 56.4168 4.74881 56.6396C9.52988 58.9783 13.8296 61.3648 18.37 64.332C32.3362 73.4803 45.5564 81.8649 58.0545 89.4698C60.068 90.7029 62.1136 90.0267 64.2474 88.6664C77.7002 80.0591 90.7278 71.3722 103.932 62.8524C106.9 60.9353 110.021 59.0817 113.31 57.276C113.887 56.9578 114.553 56.8782 115.307 57.0214C115.564 57.0771 115.724 57.2521 115.78 57.5703C115.836 57.8487 115.716 58.143 115.492 58.3181V58.326Z" fill="#FAFAFA"/>
<path d="M80.0269 9.71305C80.0269 10.1665 79.6499 10.5324 79.1926 10.5324L50.9073 10.3335C50.4501 10.3335 50.0811 9.95965 50.0811 9.50622V9.09256C50.0811 8.63912 50.4581 8.27319 50.9234 8.27319L79.2087 8.47207C79.6659 8.47207 80.0349 8.84595 80.0349 9.29939V9.71305H80.0269Z" fill="#FAFAFA"/>
<path d="M87.68 14.9395C87.9207 14.9554 87.9849 15.0668 87.8565 15.2656C87.4394 15.9418 87.2709 16.7293 87.3592 17.6124C87.3752 17.8351 87.2068 18.0181 86.9902 18.0181L30.0104 17.9942C29.4409 17.9942 28.9756 17.5328 28.9756 16.968V15.7588C28.9756 15.4565 29.128 15.2815 29.4328 15.2259C31.3741 14.8997 32.9224 14.7406 34.0936 14.7406C50.6589 14.7804 67.0156 15.0906 83.4284 14.8201C84.8162 14.7963 86.2361 14.8281 87.6881 14.9315L87.68 14.9395Z" fill="#FAFAFA"/>
<path d="M90.8325 17.6283C91.001 17.9943 91.1775 18.3443 91.378 18.6863C91.4342 18.7739 91.4101 18.8454 91.3219 18.9011C91.2417 18.9489 91.1695 18.933 91.1293 18.8375C90.5117 17.5647 89.4768 17.0715 89.7656 15.5123C89.8057 15.2896 89.9341 15.21 90.1507 15.2737C91.1454 15.5521 92.0358 15.926 92.822 16.3874C92.9423 16.451 93.0145 16.5385 93.0386 16.626C93.0466 16.6817 93.0546 16.7294 93.0466 16.7851C93.0305 16.9203 92.9503 16.976 92.822 16.9681C92.1642 16.9283 91.5866 16.976 91.0732 17.1192C90.8486 17.1749 90.7283 17.4215 90.8325 17.6283Z" fill="#FAFAFA"/>
<path d="M87.7515 23.6661C87.7515 24.215 87.3022 24.6525 86.7487 24.6525H30.1941C29.6406 24.6525 29.1914 24.215 29.1914 23.6661V22.7353C29.1914 22.1864 29.6406 21.741 30.1941 21.741H86.7487C87.3022 21.741 87.7515 22.1864 87.7515 22.7353V23.6661Z" fill="#FAFAFA"/>
<path d="M29.2002 30.6585C29.0719 30.6426 28.9756 30.5312 28.9756 30.404V28.5902C28.9756 28.3675 29.0879 28.2561 29.3125 28.2641L86.918 28.3595C87.4314 28.3595 87.648 28.6141 87.5758 29.1153L87.3672 30.5869C87.303 31.0722 87.0223 31.3188 86.5249 31.3188C70.9142 31.3188 54.8944 31.3267 38.4495 31.3427C35.4493 31.3427 32.3689 31.112 29.2002 30.6665V30.6585Z" fill="#FAFAFA"/>
<path d="M59.8358 35.9248L59.7074 36.935C59.6433 37.468 59.178 37.8658 58.6405 37.8658H29.6493C29.2081 37.8658 28.9835 37.643 28.9674 37.2055L28.9032 35.6066C28.8872 35.2088 29.0877 34.9702 29.4888 34.9065C32.3687 34.469 34.6229 34.2701 36.2353 34.3338C43.9443 34.6281 51.509 34.8111 58.9293 34.8906C59.6192 34.8906 59.924 35.2406 59.8358 35.9248Z" fill="#FAFAFA"/>
<path d="M87.8964 37.1419C87.8964 37.6431 87.4953 38.0488 86.99 38.0568L66.6062 38.2318C66.1009 38.2318 65.6837 37.834 65.6837 37.3329V36.4817C65.6757 35.9805 66.0768 35.5748 66.5822 35.5669L86.9659 35.3918C87.4713 35.3918 87.8884 35.7896 87.8884 36.2908V37.1419H87.8964Z" fill="#FAFAFA"/>
<path d="M59.6507 43.2911C59.6507 43.9195 59.1212 44.4207 58.4955 44.4207L30.146 44.1741C29.5123 44.1741 28.9989 43.649 29.0069 43.0285V42.4558C29.0069 41.8273 29.5364 41.3262 30.1701 41.3262L58.5196 41.5728C59.1533 41.5728 59.6587 42.0978 59.6587 42.7183V43.2911H59.6507Z" fill="#FAFAFA"/>
<path d="M65.4267 42.6388H87.1501C87.5753 42.6388 87.9122 42.9729 87.9282 43.3945L87.9443 44.2218C87.9523 44.6594 87.5993 45.0094 87.1581 45.0094L65.9401 44.8264C65.7075 44.8264 65.4989 44.723 65.3545 44.548L64.817 43.9036C64.3999 43.4025 64.7609 42.6468 65.4187 42.6468L65.4267 42.6388Z" fill="#FAFAFA"/>
</g>
<defs>
<clipPath id="clip0_331_1956">
<rect width="120" height="140" fill="white"/>
</clipPath>
</defs>
</svg>
